<svg width="80" height="83" viewBox="0 0 80 83" fill="none" xmlns="http://www.w3.org/2000/svg">
<g clip-path="url(#clip0_966_6806)">
<path d="M66.5445 62.5761C66.3051 63.8884 65.8847 65.0904 65.3503 66.1848C63.2291 70.5324 59.3125 73.1624 57.7815 74.1908C56.9269 74.7642 56.0639 75.2632 55.201 75.6988C48.4311 79.1338 41.6584 78.6458 38.7717 78.4666C27.9655 77.805 20.8726 72.2802 18.5316 70.4001C11.0824 64.426 8.04824 57.2388 6.81785 53.8865C6.72042 53.6218 6.63413 53.3792 6.55897 53.1642C6.1275 51.9484 5.55963 50.3439 5.07248 48.4444C4.01469 44.3588 3.31041 38.9085 5.07805 32.995C6.44762 28.4186 8.82767 25.4605 13.5933 19.5498C18.4425 13.5343 21.2624 10.0359 26.5541 7.20457C29.026 5.88127 35.0471 2.76327 42.9695 3.65925C46.9808 4.11413 50.143 5.44293 52.2197 6.54568C52.4869 6.68903 52.7346 6.82688 52.9657 6.95921C53.0241 7.00056 53.0798 7.04191 53.1355 7.08327C54.9477 8.46997 55.1954 10.9897 53.9539 12.4619C53.2997 13.2366 52.2753 13.6694 51.1869 13.6694C51.109 13.6694 51.0282 13.6694 50.9503 13.6611C50.8557 13.6556 50.761 13.6473 50.6636 13.6363C50.6274 13.6308 50.5884 13.6253 50.5522 13.6198C48.8765 13.3579 47.1812 13.1897 45.4859 13.2752C45.1519 13.2917 44.8234 13.311 44.4977 13.3331C43.671 13.3882 42.8693 13.4571 42.0926 13.5398C41.9395 13.5536 41.792 13.5702 41.6417 13.5867C41.5053 13.6032 41.3689 13.617 41.2297 13.6336C41.0822 13.6501 40.9346 13.6694 40.7899 13.6887C40.6423 13.7052 40.4976 13.7245 40.3528 13.7466C38.6242 13.9754 37.0458 14.2621 35.6289 14.5681C35.512 14.593 35.3951 14.6178 35.281 14.6453C34.7688 14.7584 34.2816 14.8742 33.8168 14.9899C33.6887 15.0203 33.5634 15.0506 33.441 15.0837C33.196 15.1471 32.9566 15.2077 32.7256 15.2711C31.8877 15.4972 25.4713 17.2836 21.2457 21.2618C20.0654 22.3756 19.2219 23.5004 18.9018 24.9284C18.565 26.4309 19.0688 27.0788 19.3945 29.695C19.5309 30.7812 19.8149 33.1935 19.3945 35.6857C18.8907 38.6686 17.8691 38.8478 17.4209 41.1856C16.6916 44.9928 18.668 48.3507 19.272 49.3763C21.3904 52.974 24.5443 54.4875 28.1575 56.2215C31.1444 57.6523 35.3255 59.6593 40.8706 59.2761C43.0196 59.1273 47.0921 58.8488 50.7443 56.2215C52.2976 55.105 54.1989 53.2579 57.6562 51.8216C58.8281 51.3336 59.769 51.0635 60.8658 51.2096C63.2737 51.5294 64.7323 53.6163 65.186 54.2642C67.4659 57.5283 66.7449 61.4678 66.5445 62.5761Z" stroke="black" stroke-miterlimit="10"/>
<path d="M73.3313 59.3816C72.6381 62.7836 69.796 65.6783 67.8057 67.7129C66.6477 68.8955 62.0212 73.6153 55.2012 75.6995C56.0641 75.2639 56.927 74.7649 57.7816 74.1915C59.3127 73.1632 63.2293 70.5331 65.3505 66.1856C65.8849 65.0911 66.3053 63.8891 66.5447 62.5768C66.7451 61.4686 67.4661 57.529 65.1862 54.2649C64.7325 53.617 63.2738 51.5301 60.866 51.2103C59.7692 51.0642 58.8283 51.3343 57.6564 51.8223C54.199 53.2586 52.2978 55.1057 50.7445 56.2223C47.0923 58.8496 43.0198 59.128 40.8708 59.2769C35.3257 59.6601 31.1446 57.6531 28.1577 56.2223C24.5445 54.4882 21.3906 52.9747 19.2722 49.377C18.6682 48.3514 16.6917 44.9936 17.4211 41.1863C17.8692 38.8485 18.8909 38.6693 19.3947 35.6864C19.815 33.1942 19.5311 30.782 19.3947 29.6958C19.069 27.0795 18.5652 26.4316 18.902 24.9291C19.2221 23.5011 20.0656 22.3763 21.2458 21.2625C25.4715 17.2844 31.8879 15.4979 32.7257 15.2719C32.9568 15.2085 33.1962 15.1478 33.4411 15.0844C33.5664 15.0513 33.6889 15.021 33.8169 14.9907C34.2818 14.8749 34.769 14.7591 35.2812 14.6461C35.3953 14.6185 35.5122 14.5937 35.6291 14.5689C37.046 14.2628 38.6244 13.9761 40.353 13.7473C40.4978 13.728 40.6425 13.7087 40.7901 13.6894C40.9348 13.6701 41.0823 13.6536 41.2299 13.6343C41.3691 13.6177 41.5055 13.604 41.6419 13.5874C41.7894 13.5709 41.9397 13.5543 42.0928 13.5406C42.8695 13.4578 43.6712 13.3889 44.4979 13.3338C44.8236 13.3117 45.1521 13.2924 45.4861 13.2759C47.1814 13.1904 48.8766 13.3586 50.5524 13.6205C50.5886 13.626 50.6276 13.6315 50.6638 13.637C50.7612 13.6481 50.8558 13.6563 50.9505 13.6619C51.0312 13.6674 51.1092 13.6701 51.1871 13.6701C52.2755 13.6701 53.2999 13.2373 53.9541 12.4626C55.1956 10.9905 54.9478 8.47069 53.1357 7.08398C53.3639 7.16118 53.5922 7.24113 53.8177 7.32935C54.9172 7.90553 56.1532 8.62783 57.5784 9.50451C58.2354 10.0862 58.8172 10.7782 59.2904 11.6052C60.4512 13.6426 61.2195 16.9701 59.6606 18.8172C58.5694 20.1101 56.7378 20.2094 53.119 20.4079C49.3499 20.6119 49.0632 19.953 46.6998 20.4079C44.2196 20.8821 44.2919 21.6567 40.2834 23.2171C36.3362 24.7555 35.6959 24.2289 33.9867 25.5412C31.6373 27.3469 30.8523 29.886 30.5322 30.9198C30.0478 32.4829 29.1237 35.4659 30.5322 36.9077C31.1056 37.4977 31.7849 37.539 36.5811 37.5197C41.1993 37.5004 41.7727 37.4563 42.7526 37.8864C44.7512 38.7631 44.6093 39.9265 46.8251 41.6743C47.1842 41.961 50.1627 44.252 54.1072 44.4863C55.7134 44.5828 58.1407 43.979 62.9927 42.7771C65.4089 42.1761 65.8794 41.9858 66.8202 42.165C69.4508 42.6613 71.4606 45.2224 72.2512 47.5437C72.4683 48.186 72.4628 48.4259 72.7439 51.089C73.2812 56.1726 73.451 56.7157 73.4844 57.5676C73.5094 58.1851 73.451 58.7889 73.3313 59.3816Z" stroke="black" stroke-miterlimit="10"/>
<path d="M75.4493 53.5312C75.4298 53.6856 75.157 55.8442 74.1521 57.9339C73.9099 58.4384 73.6343 58.9209 73.3309 59.3813C73.4506 58.7885 73.509 58.1848 73.484 57.5672C73.4506 56.7154 73.2808 56.1723 72.7435 51.0886C72.4624 48.4255 72.4679 48.1857 72.2508 47.5433C71.4602 45.222 69.4504 42.6609 66.8198 42.1647C65.879 41.9855 65.4085 42.1757 62.9923 42.7767C58.1403 43.9787 55.713 44.5824 54.1068 44.4859C50.1623 44.2516 47.1838 41.9607 46.8247 41.6739C44.6089 39.9261 44.7508 38.7627 42.7522 37.886C41.7723 37.456 41.1989 37.5001 36.5807 37.5194C31.7845 37.5387 31.1052 37.4973 30.5318 36.9073C29.1233 35.4655 30.0474 32.4826 30.5318 30.9194C30.8519 29.8856 31.6369 27.3465 33.9863 25.5408C35.6955 24.2285 36.3358 24.7551 40.283 23.2168C44.2915 21.6564 44.2192 20.8817 46.6994 20.4075C49.0628 19.9527 49.3495 20.6115 53.1186 20.4075C56.7374 20.209 58.569 20.1098 59.6602 18.8168C61.2191 16.9697 60.4508 13.6422 59.29 11.6049C58.8168 10.7778 58.235 10.0858 57.578 9.50415C59.6324 10.764 62.0792 12.352 65.0828 14.2956C66.0098 14.8938 67.8526 16.1234 67.95 17.8685C68.0001 18.7534 67.5937 19.5722 67.0258 20.7108C66.5526 21.6619 66.3411 21.7915 65.2666 23.4621C63.961 25.4912 64.1531 25.4884 63.5073 26.3045C62.0124 28.1984 61.1495 28.0082 60.9157 28.9621C60.4925 30.6823 62.867 33.0505 65.1747 34.1891C67.3209 35.245 67.9361 34.5116 69.4337 35.5647C71.6412 37.1169 72.2619 40.0915 72.5793 41.6133C73.0386 43.816 72.6071 44.4611 73.4116 46.198C74.102 47.6867 74.6476 47.7032 75.1709 49.1313C75.7777 50.7854 75.6024 52.263 75.4493 53.5312Z" stroke="black" stroke-miterlimit="10"/>
</g>
<defs>
<clipPath id="clip0_966_6806">
<rect width="80" height="82" fill="white" transform="translate(0 0.5)"/>
</clipPath>
</defs>
</svg>
