<svg width="80" height="82" viewBox="0 0 80 82" fill="none" xmlns="http://www.w3.org/2000/svg">
<path d="M69.8089 20.4505C69.7688 21.475 69.3805 21.889 69.2144 22.0376C69.0832 22.1544 68.9386 22.242 68.7859 22.3057C68.4967 22.4304 68.1807 22.4676 67.8808 22.4649C67.2461 22.4543 66.6837 22.2473 66.6007 22.2155C65.4679 21.3502 63.8236 20.2727 61.6731 19.3915C60.8751 19.0624 58.6309 18.1972 55.5592 17.8601C53.6391 17.6505 50.1711 17.5151 46.2371 18.6855C43.8536 19.3942 43.8402 19.8268 38.519 21.743C36.3605 22.5233 35.4179 22.7914 34.186 22.9214C32.2552 23.1232 31.6553 22.7675 29.9119 23.1577C29.1272 23.3328 27.6757 23.6752 26.2885 24.8032C25.9109 25.1137 23.5302 27.0538 23.8542 29.3947C23.8864 29.6203 23.9828 30.26 24.4487 30.8651C25.0888 31.6985 26.0368 31.7569 27.5365 32.2771C29.3013 32.8875 30.0029 32.8158 31.8106 33.3944C33.8754 34.0553 33.6075 34.3552 35.6107 35.0426C38.2673 35.9556 38.8324 35.4593 40.8944 36.3962C42.1718 36.9748 43.4332 37.5454 44.1 38.8671C45.0641 40.7754 44.1054 42.9119 43.8643 43.456C42.8601 45.6961 40.94 46.7842 38.6395 48.0449C35.7794 49.6135 35.1126 49.2525 31.1572 51.2218C27.9034 52.8461 27.0384 53.7459 26.5269 54.7544C25.7369 56.3097 25.919 57.8517 26.0529 58.8709C26.16 59.6804 26.3475 60.4341 26.5992 61.1428C27.5445 63.8181 29.395 65.8537 31.1572 67.7567C32.539 69.2457 34.3413 71.1513 36.9926 72.7172C37.9406 73.2772 38.9957 73.7921 40.1821 74.23C42.5655 75.1085 44.6785 75.3792 46.1192 75.4641C46.4031 75.7641 46.9119 76.478 46.5932 76.4647C25.994 75.642 17.2208 61.8036 16.3745 60.5191C15.0837 58.5577 11.3452 52.4586 10.6757 43.6922C10.4026 40.1092 10.1615 29.8433 17.2047 20.0391C19.7033 16.5623 25.9243 9.23439 36.6792 6.44496C37.2738 6.29102 48.9606 3.41931 59.1799 8.44613C62.9318 10.2934 64.9617 12.4538 66.7801 14.3886C67.5139 15.1715 69.9053 17.8017 69.8089 20.4505Z" stroke="black" stroke-miterlimit="10"/>
<path d="M68.6785 24.1563C68.625 24.4217 68.5768 24.6552 68.5179 24.8623C68.4081 25.263 68.2634 25.5656 67.9662 25.8045C67.4386 26.2318 66.753 26.1973 65.0579 25.9239C62.8646 25.5656 61.7666 25.3878 60.9605 25.0985C58.5797 24.2412 58.6521 23.5273 56.8042 23.2167C56.116 23.1 54.8707 22.8876 53.4808 23.3335C52.7926 23.5538 52.5114 23.7927 51.641 23.9811C51.3786 24.0368 50.7278 24.1616 49.3834 24.0979C47.3133 24.0023 47.1339 23.6228 45.7039 23.6865C44.5925 23.7343 43.7462 24.005 43.3285 24.1563C42.4715 24.4721 41.3976 24.8649 40.5969 25.9239C40.4683 26.0938 39.2579 27.7472 39.8256 29.5706C40.0452 30.2792 40.4442 30.7278 40.7763 31.0993C41.6413 32.076 42.4447 32.3202 43.7436 33.0421C45.6155 34.0825 45.2084 34.2816 46.8313 35.1601C48.1703 35.8846 48.2801 35.6617 50.9287 36.8082C52.8809 37.6522 53.5263 38.0795 54.0753 38.7484C54.3726 39.112 54.9028 39.7782 55.0233 40.7496C55.1867 42.05 54.5118 43.0639 54.0137 43.8097C53.7566 44.1998 52.9318 45.3597 51.1643 46.3974C49.7637 47.2228 49.4049 47.0105 46.534 48.0456C45.0718 48.5738 43.8855 49.009 42.4367 49.8106C41.7404 50.1981 42.0269 50.0919 39.3516 51.8117C39.3516 51.8117 37.943 52.7168 36.1434 53.9297C34.5767 54.9887 34.25 55.2408 33.9474 55.753C33.2832 56.8784 33.4198 58.07 33.4734 58.5186C33.6769 60.2676 34.7347 61.3956 35.1953 61.8733C36.0148 62.7226 36.8129 63.1075 38.0447 63.6967C40.1068 64.6866 40.554 64.4212 42.201 65.3449C43.5186 66.0827 44.48 66.6215 44.871 67.699C45.2566 68.7553 44.7076 69.2755 45.2272 70.4646C45.2539 70.5256 45.2807 70.584 45.3102 70.6397C45.7601 71.5262 46.4724 72.0252 46.7724 72.2295C47.3401 72.617 47.9159 72.824 48.4033 72.9329C48.5506 72.9647 48.5399 73.1744 48.3899 73.1903C47.8007 73.254 47.1152 73.3124 46.3573 73.3469C44.3407 73.4424 40.8459 73.607 36.9923 72.7179C34.341 71.152 32.5387 69.2463 31.1569 67.7574C29.3948 65.8544 27.5442 63.8188 26.5989 61.1435C26.3472 60.4348 26.1597 59.6811 26.0526 58.8716C25.9187 57.8524 25.7366 56.3104 26.5266 54.7551C27.0381 53.7465 27.9031 52.8468 31.1569 51.2225C35.1123 49.2532 35.7791 49.6142 38.6393 48.0456C40.9397 46.7849 42.8598 45.6967 43.8641 43.4567C44.1051 42.9126 45.0638 40.7761 44.0997 38.8678C43.4329 37.5461 42.1716 36.9755 40.8941 36.3969C38.8321 35.46 38.267 35.9563 35.6104 35.0433C33.6073 34.3559 33.8751 34.056 31.8103 33.3951C30.0027 32.8165 29.301 32.8882 27.5362 32.2777C26.0365 31.7575 25.0885 31.6992 24.4485 30.8658C23.9825 30.2606 23.8861 29.621 23.8539 29.3954C23.5299 27.0545 25.9107 25.1144 26.2883 24.8039C27.6755 23.6759 29.127 23.3335 29.9116 23.1583C31.655 22.7682 32.2549 23.1238 34.1857 22.9221C35.4176 22.7921 36.3603 22.524 38.5187 21.7437C43.84 19.8275 43.8533 19.3949 46.2368 18.6862C50.1708 17.5158 53.6388 17.6511 55.5589 17.8608C58.6306 18.1979 60.8748 19.0631 61.6729 19.3922C63.8233 20.2734 65.4676 21.3509 66.6004 22.2162C66.6834 22.248 67.2458 22.455 67.8805 22.4656C68.1804 22.4683 68.4964 22.4311 68.7857 22.3064C68.8312 22.8691 68.8151 23.4928 68.6785 24.1563Z" stroke="black" stroke-miterlimit="10"/>
<path d="M68.6199 26.3935C68.5878 27.2348 68.5316 28.6176 67.6693 29.9818C66.7614 31.4283 65.8536 31.4177 63.8102 33.395C62.4873 34.6769 61.708 35.4306 61.2581 36.6913C60.7573 38.0953 60.9581 39.3109 61.317 41.4554C61.6785 43.6105 62.024 43.7511 62.4471 46.0443C62.8461 48.2206 63.0524 49.3512 62.7417 50.7526C62.1847 53.2766 60.361 54.8346 59.8923 55.2247C59.0434 55.9307 58.572 56.0448 52.9455 58.0486C50.3666 58.967 49.0624 59.4526 48.2563 60.6974C48.0796 60.9681 47.2789 62.2076 47.6029 63.5213C47.7047 63.9354 48.0876 64.4689 48.8509 65.5225C49.9274 67.0115 50.155 67.1388 50.2756 67.6989C50.4362 68.4473 50.2916 69.4346 49.681 69.992C49.0624 70.56 48.2001 70.475 47.4262 70.4644C46.5772 70.4511 45.897 70.5281 45.3105 70.6396C45.2811 70.5838 45.2543 70.5254 45.2275 70.4644C44.708 69.2754 45.257 68.7552 44.8713 67.6989C44.4803 66.6213 43.5189 66.0825 42.2013 65.3447C40.5544 64.4211 40.1071 64.6865 38.0451 63.6965C36.8132 63.1073 36.0151 62.7225 35.1957 61.8732C34.735 61.3954 33.6772 60.2675 33.4737 58.5184C33.4201 58.0699 33.2836 56.8782 33.9477 55.7529C34.2503 55.2406 34.577 54.9885 36.1437 53.9295C37.9433 52.7166 39.3519 51.8116 39.3519 51.8116C42.0273 50.0917 41.7407 50.1979 42.437 49.8104C43.8858 49.0089 45.0722 48.5736 46.5344 48.0454C49.4052 47.0103 49.7641 47.2227 51.1647 46.3973C52.9321 45.3595 53.757 44.1997 54.0141 43.8095C54.5122 43.0637 55.187 42.0499 55.0237 40.7494C54.9032 39.778 54.3729 39.1118 54.0757 38.7482C53.5267 38.0794 52.8813 37.6521 50.929 36.8081C48.2804 35.6615 48.1706 35.8845 46.8316 35.1599C45.2088 34.2814 45.6158 34.0824 43.7439 33.042C42.445 32.32 41.6416 32.0759 40.7766 31.0992C40.4446 30.7276 40.0455 30.2791 39.8259 29.5704C39.2582 27.7471 40.4687 26.0936 40.5972 25.9237C41.3979 24.8648 42.4718 24.472 43.3288 24.1561C43.7466 24.0048 44.5928 23.7341 45.7042 23.6863C47.1342 23.6226 47.3137 24.0022 49.3838 24.0977C50.7281 24.1614 51.3789 24.0367 51.6413 23.9809C52.5117 23.7925 52.7929 23.5536 53.4811 23.3334C54.871 22.8875 56.1163 23.0998 56.8046 23.2166C58.6524 23.5271 58.5801 24.241 60.9608 25.0983C61.7669 25.3876 62.8649 25.5654 65.0582 25.9237C66.7534 26.1971 67.4389 26.2316 67.9665 25.8043C68.2638 25.5654 68.4084 25.2629 68.5182 24.8621C68.6039 25.4062 68.6387 25.9184 68.6199 26.3935Z" stroke="black" stroke-miterlimit="10"/>
</svg>
