<svg width="80" height="82" viewBox="0 0 80 82" fill="none" xmlns="http://www.w3.org/2000/svg">
<path d="M70.7314 60.1315C70.6937 60.2991 70.6559 60.4531 70.6209 60.5883C70.1411 62.5234 69.0791 64.0991 66.6775 66.4315C64.7071 68.3423 62.4807 70.5044 58.6101 72.6315C57.381 73.3071 52.6047 75.8396 45.6127 76.8558C41.7259 77.4206 36.5399 78.1747 30.2866 76.1369C28.5911 75.5855 23.6963 73.8098 19.1706 69.3963C17.2704 67.5423 16.1113 65.7937 13.7933 62.2964C11.1922 58.3748 9.21104 55.3288 7.96576 50.8829C7.38894 48.8154 7.12479 46.9964 6.80134 44.7694C6.32425 41.4856 6.05201 39.6181 6.1733 37.4019C6.38355 33.5478 7.65848 30.7398 8.95228 27.9641C10.1032 25.4938 11.6774 23.256 14.7798 18.8857C20.3243 11.0696 21.8688 10.3777 22.7852 9.68849C25.5669 7.60201 30.1356 4.83716 31.8391 5.01554C32.5912 5.09391 32.8014 5.59661 32.9065 5.96148C32.9065 5.96688 32.9092 5.96959 32.9092 5.97499C33.0036 6.31823 33.0413 6.7885 33.0036 6.81283C32.8823 6.89661 32.761 6.97769 32.6424 7.05877C28.8122 9.69389 26.982 11.4642 26.0736 12.2344C24.2596 13.775 22.7825 15.0263 21.5911 17.1776C20.2192 19.656 19.9873 21.9371 19.7987 23.829C19.5776 26.0181 19.3297 28.4722 20.3351 31.1992C21.3054 33.8289 22.3782 33.837 23.5615 36.7722C24.2812 38.5532 24.2785 39.5208 24.7286 42.6127C25.4968 47.9072 25.8822 50.5532 26.699 52.3207C28.982 57.2559 34.6828 59.164 35.4833 59.4207C43.0197 61.8288 51.8607 57.8288 55.292 56.2748C57.7556 55.1613 60.6155 53.5694 64.6155 53.7586C65.9524 53.8207 69.0306 53.9667 70.3513 56.0937C70.5885 56.4748 70.7395 56.8721 70.8311 57.2721C71.071 58.318 70.9012 59.3748 70.7314 60.1315Z" stroke="black" stroke-miterlimit="10"/>
<path d="M74.0007 53.04C73.6315 55.6562 72.3323 58.2075 70.7312 60.1319C70.901 59.3751 71.0708 58.3184 70.8309 57.2724C70.7393 56.8724 70.5883 56.4751 70.3511 56.094C69.0304 53.967 65.9522 53.8211 64.6153 53.7589C60.6153 53.5697 57.7554 55.1616 55.2918 56.2751C51.8605 57.8292 43.0195 61.8291 35.4831 59.421C34.6826 59.1643 28.9818 57.2562 26.6987 52.3211C25.882 50.5535 25.4966 47.9076 24.7284 42.613C24.2782 39.5211 24.2809 38.5536 23.5613 36.7725C22.378 33.8374 21.3052 33.8293 20.3348 31.1995C19.3295 28.4725 19.5774 26.0185 19.7985 23.8293C19.9871 21.9374 20.2189 19.6564 21.5909 17.178C22.7823 15.0266 24.2594 13.7753 26.0734 12.2348C26.9818 11.4645 28.812 9.69423 32.6421 7.05911C32.7607 6.97803 32.882 6.89695 33.0033 6.81316C33.0411 6.78884 33.0033 6.31857 32.909 5.97533C32.9953 5.92398 33.0788 5.87533 33.1624 5.82398C33.2486 5.80236 33.3726 5.77533 33.5209 5.76452C34.0168 5.72939 34.3915 5.89695 34.626 6.00506C34.8659 6.11587 35.0653 6.20776 35.1947 6.33479C35.2648 6.40236 35.316 6.47803 35.343 6.57262C35.3942 6.751 35.343 6.91046 35.3133 6.99424C35.1489 7.46992 34.6556 7.71046 34.537 7.77262C32.8982 8.60235 31.5451 10.8861 28.6502 12.4753C28.4319 12.5969 27.6556 13.0131 27.3969 13.7942C27.351 13.9266 27.2513 14.2402 27.3672 14.5726C27.5074 14.9861 27.8982 15.2023 28.1435 15.3212C29.4831 15.9753 30.8551 15.9104 32.564 16.551C33.5047 16.9023 33.7634 17.1726 33.909 17.4185C34.1597 17.8374 34.1974 18.3807 33.9386 19.3969C33.5289 20.9996 32.8012 22.1104 32.7149 22.2428C31.2998 24.4212 31.7581 27.3617 32.4157 31.5887C32.8066 34.1076 33.0033 35.3671 33.82 36.6211C34.6907 37.9644 35.1462 37.7671 38.2405 40.7265C40.3241 42.7184 41.0357 43.686 41.529 44.4725C41.971 45.1779 42.2918 45.8725 42.9333 47.2562C43.909 49.3697 44.2918 50.6103 45.5317 52.0805C45.9171 52.5373 46.1112 52.767 46.4292 52.9805C46.7527 53.1968 47.9279 53.8967 51.0007 53.0995C53.3807 52.4805 56.3942 51.6968 57.812 49.1751C58.4185 48.0941 58.3619 47.3562 59.4859 45.5508C60.1193 44.5319 60.4751 43.959 61.157 43.4238C62.9791 41.9941 65.3026 42.259 66.0573 42.3454C68.3376 42.6022 69.8498 43.7698 70.5102 44.2914C70.7905 44.513 72.6099 45.9887 73.5263 48.3373C74.1166 49.8481 74.2298 51.4562 74.0007 53.04Z" stroke="black" stroke-miterlimit="10"/>
<path d="M74.0006 53.0395C74.2297 51.4557 74.1165 49.8476 73.5262 48.3368C72.6097 45.9882 70.7903 44.5125 70.51 44.2909C69.8496 43.7693 68.3375 42.6017 66.0571 42.3449C65.3024 42.2585 62.979 41.9936 61.1569 43.4233C60.4749 43.9585 60.1191 44.5314 59.4857 45.5503C58.3617 47.3557 58.4183 48.0936 57.8118 49.1746C56.394 51.6963 53.3806 52.48 51.0005 53.099C47.9277 53.8962 46.7525 53.1963 46.4291 52.98C46.111 52.7665 45.9169 52.5368 45.5315 52.08C44.2916 50.6098 43.9088 49.3692 42.9331 47.2557C42.2916 45.872 41.9708 45.1774 41.5288 44.472C41.0355 43.6855 40.3239 42.7179 38.2404 40.726C35.146 37.7666 34.6905 37.9639 33.8199 36.6206C33.0032 35.3666 32.8064 34.1071 32.4156 31.5882C31.7579 27.3612 31.2996 24.4207 32.7147 22.2423C32.801 22.1099 33.5288 20.9991 33.9385 19.3964C34.1972 18.3802 34.1595 17.8369 33.9088 17.418C33.7633 17.1721 33.5045 16.9018 32.5638 16.5505C30.8549 15.9099 29.4829 15.9748 28.1433 15.3207C27.898 15.2018 27.5072 14.9856 27.367 14.5721C27.2511 14.2397 27.3509 13.9261 27.3967 13.7937C27.6554 13.0126 28.4317 12.5964 28.65 12.4748C31.5449 10.8856 32.898 8.60184 34.5369 7.77212C34.6554 7.70995 35.1487 7.46941 35.3131 6.99374C35.3428 6.90996 35.394 6.7505 35.3428 6.57212C35.3158 6.47753 35.2646 6.40185 35.1945 6.33428C35.7417 6.23158 36.2916 6.17483 36.8792 6.16942C37.704 6.16131 38.3886 6.25861 38.8522 6.3478C38.9762 6.40726 39.1406 6.50726 39.1649 6.66401C39.1945 6.83969 39.014 6.93158 38.9627 7.13428C38.8954 7.40455 39.1164 7.63698 39.4102 8.03428C39.7498 8.49103 40.0301 8.86671 40.1514 9.22346C40.2565 9.53427 40.1757 9.70184 40.0166 10.6856C39.9412 11.1478 39.89 11.6153 39.8145 12.0775C39.5746 13.5694 39.9088 14.0721 39.8145 16.1667C39.7687 17.2207 39.7255 18.0207 39.4102 19.0423C39.1325 19.9504 38.9547 19.9964 38.6042 21.0667C38.2538 22.1342 37.987 22.9531 38.111 23.9639C38.1487 24.2747 38.2889 25.391 39.0975 26.2558C40.0301 27.2531 41.3347 27.3531 43.5342 27.491C45.3347 27.6045 45.8549 27.4207 47.545 27.4477C49.669 27.4801 50.7606 27.5261 52.1164 27.9855C53.7229 28.5315 53.5719 28.9666 55.4992 29.7396C56.2377 30.0342 57.8038 30.6477 59.8253 30.7261C61.5558 30.7963 61.6447 30.3963 63.6124 30.4585C65.1003 30.5045 66.173 30.5369 67.2647 31.1774C68.2 31.7234 68.7094 32.5369 69.731 34.1639C70.3887 35.2152 71.1191 36.3774 71.7014 38.0747C72.0032 38.9477 72.2836 40.3423 72.8442 43.1314C73.0329 44.0666 73.1731 44.8125 73.5855 45.8044C74.0814 46.999 74.545 47.526 74.793 48.0071C75.5639 49.499 74.7768 51.5746 74.0006 53.0395Z" stroke="black" stroke-miterlimit="10"/>
</svg>
