<?xml version="1.0" encoding="UTF-8"?>
<svg id="Layer_1" xmlns="http://www.w3.org/2000/svg" version="1.1" viewBox="0 0 1063 128">
  <!-- Generator: Adobe Illustrator 29.8.5, SVG Export Plug-In . SVG Version: 2.1.1 Build 2)  -->
  <path d="M93.1,38.6h-27.1c-.2-2.2-.7-4.3-1.5-6.1-.8-1.8-1.9-3.4-3.4-4.7-1.4-1.3-3.1-2.4-5.1-3.1-2-.7-4.3-1.1-6.9-1.1-4.5,0-8.3,1.1-11.4,3.3-3.1,2.2-5.4,5.3-7,9.4-1.6,4.1-2.4,8.9-2.4,14.6s.8,11.1,2.4,15.1c1.6,4,4,7.1,7.1,9.1,3.1,2,6.8,3,11.1,3s4.7-.3,6.6-.9c2-.6,3.6-1.6,5.1-2.7,1.4-1.2,2.6-2.6,3.5-4.3.9-1.7,1.6-3.6,1.9-5.7l27.1.2c-.3,4.2-1.5,8.4-3.5,12.7-2,4.3-4.9,8.3-8.6,11.9-3.7,3.6-8.2,6.5-13.7,8.7-5.4,2.2-11.8,3.3-19,3.3s-17.1-1.9-24.3-5.8c-7.1-3.9-12.8-9.6-16.9-17.1C3,70.9,1,61.7,1,50.8s2.1-20.2,6.3-27.6c4.2-7.5,9.9-13.2,17.1-17C31.5,2.3,39.5.4,48.4.4s11.9.8,17.1,2.5c5.2,1.7,9.8,4.2,13.7,7.4,3.9,3.2,7.1,7.2,9.5,12,2.4,4.7,3.9,10.2,4.4,16.3M126.1,101.2c-4.7,0-8.9-.8-12.5-2.3-3.6-1.6-6.4-3.9-8.4-7.1s-3.1-7.2-3.1-12.1.7-7.5,2.1-10.3c1.4-2.9,3.3-5.2,5.8-7.1,2.5-1.8,5.3-3.2,8.6-4.2,3.3-1,6.8-1.6,10.7-1.9,4.1-.3,7.4-.7,9.9-1.2,2.5-.5,4.4-1.1,5.5-2,1.1-.9,1.7-2,1.7-3.4v-.2c0-1.9-.7-3.4-2.2-4.4-1.5-1-3.4-1.5-5.7-1.5-2.5,0-4.6.6-6.2,1.7-1.6,1.1-2.5,2.8-2.8,5h-24.4c.3-4.5,1.7-8.6,4.3-12.4,2.6-3.8,6.3-6.8,11.2-9.1,4.9-2.3,11-3.5,18.3-3.5s10,.6,14.2,1.9c4.2,1.2,7.8,2.9,10.7,5.1,2.9,2.2,5.2,4.7,6.7,7.7,1.6,2.9,2.4,6.1,2.4,9.5v50.5h-24.8v-10.4h-.6c-1.5,2.8-3.3,5-5.4,6.7-2.1,1.7-4.5,2.9-7.2,3.7-2.7.8-5.6,1.2-8.8,1.2M134.8,84.4c2,0,3.9-.4,5.7-1.2,1.8-.8,3.2-2,4.4-3.6,1.1-1.6,1.7-3.5,1.7-5.7v-6.1c-.7.3-1.5.6-2.3.8-.8.3-1.6.5-2.5.7-.9.2-1.8.4-2.8.6-1,.2-2,.4-3,.5-2,.3-3.7.8-5,1.6-1.3.7-2.2,1.6-2.9,2.6-.6,1-.9,2.2-.9,3.5,0,2,.7,3.6,2.2,4.7s3.3,1.6,5.5,1.6M185.5,127.6V26.3h26.3v12.9h.6c1-2.5,2.4-4.8,4.2-6.9,1.9-2.1,4.2-3.8,6.9-5,2.8-1.3,6-1.9,9.6-1.9s9.5,1.3,13.9,3.9c4.4,2.6,8,6.7,10.8,12.2,2.8,5.6,4.2,12.8,4.2,21.7s-1.3,15.6-4,21.2c-2.6,5.6-6.1,9.8-10.6,12.5-4.4,2.8-9.2,4.1-14.4,4.1s-6.5-.6-9.3-1.7c-2.7-1.2-5-2.7-6.9-4.7-1.9-1.9-3.3-4.2-4.4-6.7h-.4v39.7h-26.5ZM211.4,63.1c0,3.6.5,6.7,1.4,9.3,1,2.6,2.3,4.6,4,6,1.8,1.4,3.9,2.1,6.3,2.1s4.5-.7,6.2-2.1c1.7-1.4,3-3.4,3.9-6,.9-2.6,1.4-5.8,1.4-9.4,0-3.6-.5-6.8-1.4-9.4-.9-2.6-2.2-4.6-3.9-6-1.7-1.4-3.8-2.1-6.2-2.1s-4.5.7-6.3,2.1c-1.7,1.4-3.1,3.4-4,6-.9,2.6-1.4,5.7-1.4,9.4M273,100V26.3h25.7v14h.8c1.3-5.2,3.5-9,6.4-11.4,2.9-2.4,6.4-3.6,10.3-3.6s2.3,0,3.4.3c1.2.2,2.3.4,3.3.7v22.6c-1.3-.4-2.9-.8-4.8-1-1.9-.2-3.6-.3-4.9-.3-2.6,0-4.9.6-7,1.8-2,1.2-3.7,2.8-4.8,4.9-1.2,2.1-1.8,4.5-1.8,7.3v38.4h-26.5ZM348.7,101.2c-4.7,0-8.9-.8-12.5-2.3-3.6-1.6-6.4-3.9-8.4-7.1-2-3.2-3.1-7.2-3.1-12.1s.7-7.5,2.1-10.3c1.4-2.9,3.3-5.2,5.8-7.1,2.5-1.8,5.3-3.2,8.6-4.2,3.3-1,6.8-1.6,10.7-1.9,4.1-.3,7.4-.7,9.9-1.2,2.5-.5,4.4-1.1,5.5-2,1.1-.9,1.7-2,1.7-3.4v-.2c0-1.9-.7-3.4-2.2-4.4-1.5-1-3.4-1.5-5.7-1.5-2.5,0-4.6.6-6.2,1.7-1.6,1.1-2.5,2.8-2.8,5h-24.4c.3-4.5,1.7-8.6,4.3-12.4,2.6-3.8,6.3-6.8,11.2-9.1,4.9-2.3,11-3.5,18.3-3.5s10,.6,14.2,1.9c4.2,1.2,7.8,2.9,10.7,5.1,2.9,2.2,5.2,4.7,6.7,7.7,1.6,2.9,2.4,6.1,2.4,9.5v50.5h-24.8v-10.4h-.6c-1.5,2.8-3.3,5-5.4,6.7-2.1,1.7-4.5,2.9-7.2,3.7-2.7.8-5.6,1.2-8.8,1.2M357.3,84.4c2,0,3.9-.4,5.7-1.2,1.8-.8,3.2-2,4.4-3.6,1.1-1.6,1.7-3.5,1.7-5.7v-6.1c-.7.3-1.5.6-2.3.8-.8.3-1.6.5-2.5.7-.9.2-1.8.4-2.8.6-1,.2-2,.4-3,.5-2,.3-3.7.8-5,1.6-1.3.7-2.2,1.6-2.9,2.6-.6,1-.9,2.2-.9,3.5,0,2,.7,3.6,2.2,4.7s3.3,1.6,5.5,1.6M499.4,38.6h-27.1c-.2-2.2-.7-4.3-1.5-6.1-.8-1.8-1.9-3.4-3.4-4.7-1.4-1.3-3.1-2.4-5.1-3.1-2-.7-4.3-1.1-6.9-1.1-4.5,0-8.3,1.1-11.4,3.3-3.1,2.2-5.4,5.3-7,9.4-1.6,4.1-2.4,8.9-2.4,14.6s.8,11.1,2.4,15.1c1.6,4,4,7.1,7.1,9.1,3.1,2,6.8,3,11.1,3s4.7-.3,6.6-.9c2-.6,3.6-1.6,5.1-2.7,1.4-1.2,2.6-2.6,3.5-4.3.9-1.7,1.6-3.6,1.9-5.7l27.1.2c-.3,4.2-1.5,8.4-3.5,12.7-2,4.3-4.9,8.3-8.6,11.9-3.7,3.6-8.2,6.5-13.7,8.7-5.4,2.2-11.8,3.3-19,3.3s-17.1-1.9-24.3-5.8c-7.1-3.9-12.8-9.6-16.9-17.1-4.1-7.5-6.2-16.7-6.2-27.6,0-10.9,2.1-20.2,6.3-27.6,4.2-7.5,9.9-13.2,17.1-17,7.2-3.9,15.2-5.8,24-5.8s11.9.8,17.1,2.5c5.2,1.7,9.8,4.2,13.7,7.4,3.9,3.2,7.1,7.2,9.5,12,2.4,4.7,3.9,10.2,4.4,16.3M547.4,101.3c-8,0-14.8-1.6-20.5-4.8-5.7-3.2-10.1-7.6-13.1-13.3-3-5.7-4.6-12.4-4.6-19.9,0-7.6,1.5-14.2,4.6-19.9,3-5.7,7.4-10.2,13.1-13.3,5.7-3.2,12.5-4.8,20.5-4.8,8,0,14.8,1.6,20.5,4.8,5.7,3.2,10.1,7.6,13.1,13.3,3,5.7,4.6,12.3,4.6,19.9s-1.5,14.2-4.6,19.9c-3,5.7-7.4,10.1-13.1,13.3-5.7,3.2-12.5,4.8-20.5,4.8M547.6,81.8c2.2,0,4.2-.8,5.8-2.3,1.6-1.5,2.9-3.6,3.8-6.4.9-2.8,1.3-6.1,1.3-9.9s-.4-7.2-1.3-9.9c-.9-2.8-2.2-4.9-3.8-6.4s-3.6-2.3-5.8-2.3-4.4.8-6.1,2.3-3,3.6-3.9,6.4c-.9,2.8-1.3,6.1-1.3,9.9s.4,7.2,1.3,9.9c.9,2.8,2.2,4.9,3.9,6.4s3.7,2.3,6.1,2.3M622.9,58.5v41.5h-26.5V26.3h25.2v14h.8c1.6-4.7,4.4-8.3,8.4-11,4.1-2.7,8.8-4,14.2-4s9.7,1.2,13.6,3.6c3.9,2.4,6.9,5.6,9,9.8,2.1,4.2,3.2,8.9,3.2,14.3v47h-26.5v-41.5c0-3.6-.9-6.5-2.8-8.6-1.9-2.1-4.4-3.1-7.8-3.1-2.2,0-4.1.5-5.7,1.4-1.6.9-2.8,2.3-3.7,4-.9,1.7-1.3,3.8-1.3,6.2"/>
  <g>
    <path d="M709.4,100.2v-19.2l36.8-30.4c2.4-2,4.5-3.9,6.3-5.7,1.8-1.8,3.1-3.6,4.1-5.5.9-1.9,1.4-4,1.4-6.4s-.5-4.7-1.6-6.5c-1.1-1.8-2.6-3.2-4.4-4.1-1.9-1-4-1.5-6.5-1.5s-4.6.5-6.5,1.5c-1.9,1-3.3,2.4-4.4,4.3-1,1.9-1.6,4.2-1.6,7h-25.4c0-6.9,1.6-12.9,4.7-17.9,3.1-5,7.5-8.8,13.2-11.5s12.4-4.1,20-4.1,14.7,1.3,20.5,3.8c5.8,2.5,10.2,6.1,13.4,10.6,3.2,4.6,4.7,9.9,4.7,16s-.8,7.6-2.3,11.3c-1.6,3.7-4.4,7.9-8.4,12.4-4.1,4.5-9.9,9.9-17.4,16.1l-9.3,7.7v.7h38.5v21.3h-75.7Z"/>
    <path d="M838.7,101.5c-9.1,0-16.9-2-23.4-6s-11.5-9.8-14.9-17.3c-3.5-7.5-5.2-16.6-5.2-27.2s1.7-19.7,5.2-27.3c3.5-7.6,8.4-13.4,14.9-17.4,6.5-4,14.3-6,23.4-6s16.9,2,23.5,6.1c6.5,4,11.5,9.8,14.9,17.4,3.4,7.5,5.2,16.6,5.2,27.3s-1.7,19.7-5.2,27.2c-3.4,7.5-8.4,13.3-14.9,17.3s-14.3,6-23.5,6ZM838.7,79.8c3.4,0,6.3-1.1,8.6-3.3,2.3-2.2,4.1-5.5,5.3-9.8s1.8-9.6,1.8-15.8-.6-11.6-1.8-15.9c-1.2-4.3-3-7.6-5.3-9.9s-5.2-3.4-8.6-3.4-6.2,1.1-8.6,3.4c-2.4,2.2-4.1,5.5-5.4,9.9-1.2,4.3-1.8,9.6-1.8,15.9s.6,11.5,1.8,15.8c1.2,4.3,3,7.6,5.3,9.8,2.4,2.2,5.2,3.3,8.6,3.3Z"/>
    <path d="M893.3,100.2v-19.2l36.8-30.4c2.4-2,4.5-3.9,6.3-5.7,1.8-1.8,3.1-3.6,4.1-5.5.9-1.9,1.4-4,1.4-6.4s-.5-4.7-1.6-6.5c-1.1-1.8-2.6-3.2-4.4-4.1-1.9-1-4-1.5-6.5-1.5s-4.6.5-6.5,1.5c-1.9,1-3.3,2.4-4.4,4.3-1,1.9-1.6,4.2-1.6,7h-25.4c0-6.9,1.6-12.9,4.7-17.9,3.1-5,7.5-8.8,13.2-11.5s12.4-4.1,20-4.1,14.7,1.3,20.5,3.8c5.8,2.5,10.2,6.1,13.4,10.6,3.2,4.6,4.7,9.9,4.7,16s-.8,7.6-2.3,11.3c-1.6,3.7-4.4,7.9-8.4,12.4-4.1,4.5-9.9,9.9-17.4,16.1l-9.3,7.7v.7h38.5v21.3h-75.7Z"/>
    <path d="M1021.8,101.5c-5.7,0-11.2-.9-16.3-2.7-5.2-1.8-9.7-4.7-13.7-8.6-3.9-3.9-7.1-9-9.3-15.3-2.3-6.3-3.4-13.9-3.4-22.9s1-15.2,3-21.5c2-6.4,4.9-11.8,8.7-16.3,3.8-4.5,8.3-7.9,13.6-10.3,5.3-2.4,11.1-3.6,17.6-3.6s13.7,1.4,19.2,4.2c5.5,2.8,9.9,6.5,13.2,11.2,3.3,4.7,5.2,9.8,5.7,15.4h-26.3c-.6-2.8-2-4.9-4.2-6.2-2.2-1.3-4.8-1.9-7.6-1.9s-6.8,1.1-9.2,3.3c-2.4,2.2-4.2,5.3-5.3,9.3-1.1,4-1.7,8.6-1.7,13.9h.5c1.3-3,3.2-5.6,5.7-7.7,2.5-2.2,5.5-3.8,8.8-5,3.4-1.1,6.9-1.7,10.6-1.7,6,0,11.2,1.3,15.7,4,4.5,2.7,8,6.4,10.5,11.1s3.7,10.1,3.7,16.1-1.7,13.2-5,18.5c-3.4,5.3-8,9.4-13.9,12.3-5.9,2.9-12.7,4.4-20.5,4.4ZM1021.5,81.3c2.7,0,5.1-.6,7.1-1.8,2.1-1.2,3.7-2.9,4.9-5,1.2-2.1,1.8-4.5,1.8-7.2s-.6-5.1-1.8-7.2c-1.2-2.1-2.8-3.8-4.9-5-2.1-1.2-4.4-1.8-7.1-1.8s-3.7.4-5.4,1.1c-1.7.7-3.1,1.7-4.3,2.9-1.2,1.3-2.2,2.7-2.9,4.4-.7,1.7-1,3.6-1,5.6s.6,5.1,1.8,7.2c1.2,2.1,2.8,3.8,4.9,5,2.1,1.2,4.4,1.8,6.9,1.8Z"/>
  </g>
</svg>