<svg width="1115" height="217" viewBox="0 0 1115 217" fill="none" xmlns="http://www.w3.org/2000/svg"><mask id="a" style="mask-type:luminance" maskUnits="userSpaceOnUse" x="0" y="0" width="1115" height="217"><path d="M0 0h1115v217H0z" fill="#fff"/></mask><g mask="url(#a)"><mask id="b" style="mask-type:alpha" maskUnits="userSpaceOnUse" x="0" y="0" width="1115" height="217"><path d="M938.867 49.208c8.159 26.759-3.907 64.778-30.592 72.96-26.686 8.181-57.892-16.572-66.051-43.33a50.8 50.8 0 0 1 3.706-38.602 50.57 50.57 0 0 1 29.841-24.667 50.4 50.4 0 0 1 38.496 3.716 50.64 50.64 0 0 1 24.6 29.923" fill="#D9D9D9"/><path d="m914.165 119.771 14.516 17.334-28.993 8.889 2.44-22.518" fill="#D9D9D9"/><path fill-rule="evenodd" clip-rule="evenodd" d="M917.951 135.472a2.273 2.273 0 0 1 .257 3.197c-8.752 10.32-6.14 27.736 10.879 33.382 3.921 1.301 8.815 3.122 13.431 5.482 4.578 2.34 9.082 5.309 12.039 8.987 3.038 3.778 4.507 8.421 2.614 13.684-1.815 5.043-6.591 10.264-14.947 15.777a2.25 2.25 0 0 1-2.513-.018 2.27 2.27 0 0 1-.945-2.334c.121-.589.47-1.106.972-1.437 8.067-5.322 11.86-9.863 13.178-13.527 1.24-3.445.406-6.456-1.88-9.298-2.366-2.942-6.204-5.561-10.572-7.794-4.33-2.213-8.984-3.951-12.798-5.216-20.207-6.704-23.637-27.97-12.903-40.626a2.26 2.26 0 0 1 3.188-.259" fill="#D9D9D9"/><path d="M98.778 54.772H72.521q-.524-4.044-2.153-7.3-1.627-3.255-4.306-5.566-2.677-2.31-6.354-3.518-3.624-1.26-8.035-1.26-7.824 0-13.496 3.833-5.617 3.833-8.664 11.08-2.994 7.247-2.994 17.54 0 10.712 3.046 17.96 3.099 7.195 8.665 10.87 5.62 3.623 13.286 3.623 4.305 0 7.825-1.103 3.57-1.103 6.249-3.203a17.7 17.7 0 0 0 4.463-5.199q1.785-3.097 2.468-6.984l26.257.157q-.683 7.143-4.148 14.074-3.415 6.932-9.4 12.656-5.987 5.672-14.6 9.032-8.558 3.361-19.64 3.361-14.598 0-26.151-6.407-11.5-6.46-18.17-18.8Q0 87.278 0 69.582q0-17.75 6.774-30.09 6.774-12.342 18.328-18.748 11.552-6.407 25.889-6.407 9.767 0 18.064 2.73 8.298 2.679 14.6 7.878 6.3 5.146 10.24 12.656 3.938 7.509 4.883 17.171m34.656 69.948q-7.72 0-13.706-2.573-5.935-2.626-9.4-7.877-3.414-5.304-3.414-13.286 0-6.72 2.363-11.343 2.363-4.62 6.512-7.51 4.15-2.888 9.557-4.358 5.409-1.523 11.553-2.048 6.88-.63 11.081-1.313 4.201-.735 6.091-2.048 1.944-1.365 1.943-3.834v-.262q0-4.044-2.783-6.25-2.782-2.205-7.509-2.205-5.094 0-8.192 2.206-3.099 2.205-3.939 6.091l-23.684-.84q1.051-7.352 5.409-13.128 4.411-5.829 12.079-9.138 7.719-3.36 18.537-3.36 7.72 0 14.231 1.837 6.512 1.785 11.343 5.252 4.831 3.413 7.457 8.402 2.678 4.989 2.678 11.395v54.825h-24.156v-11.238h-.63q-2.154 4.095-5.514 6.932-3.309 2.835-7.825 4.253-4.463 1.418-10.082 1.418m7.929-16.804q4.15 0 7.457-1.681 3.361-1.68 5.356-4.621 1.996-2.993 1.996-6.932v-7.667q-1.103.578-2.678 1.05-1.664.51-3.361.893-1.838.42-3.781.735a258 258 0 0 1-3.729.578q-3.623.578-6.196 1.785-2.521 1.209-3.886 3.151-1.313 1.89-1.313 4.517 0 3.99 2.836 6.091 2.888 2.1 7.299 2.101m53.022 45.687V42.693h25.417v13.812h.787q1.577-3.675 4.464-7.09 2.941-3.412 7.457-5.566 4.569-2.206 10.923-2.206 8.401 0 15.702 4.411 7.351 4.412 11.868 13.602 4.516 9.19 4.516 23.42 0 13.707-4.359 22.949-4.306 9.243-11.658 13.864-7.299 4.621-16.227 4.621-6.091 0-10.555-1.996t-7.509-5.251q-2.993-3.256-4.622-6.984h-.525v43.324zm25.154-70.579q0 6.511 1.733 11.343 1.785 4.83 5.094 7.51 3.361 2.625 8.035 2.625 4.727 0 8.034-2.625 3.309-2.68 4.989-7.51 1.733-4.83 1.733-11.343 0-6.512-1.733-11.29-1.68-4.779-4.989-7.405-3.256-2.625-8.034-2.625-4.726 0-8.035 2.573t-5.094 7.352q-1.733 4.778-1.733 11.395m66.479 40.331V42.694h24.944v14.703h.84q2.207-7.98 7.194-11.868 4.99-3.938 11.606-3.938 1.785 0 3.676.262 1.89.21 3.518.683v22.318q-1.837-.63-4.831-.997-2.94-.368-5.251-.368-4.569 0-8.245 2.048-3.624 1.995-5.724 5.619-2.048 3.57-2.048 8.402v43.797zm78.99 1.365q-7.72 0-13.706-2.573-5.934-2.626-9.4-7.877-3.414-5.304-3.414-13.286 0-6.72 2.364-11.343 2.363-4.62 6.511-7.51 4.149-2.888 9.558-4.358 5.409-1.523 11.553-2.048 6.879-.63 11.08-1.313 4.201-.735 6.092-2.048 1.943-1.365 1.943-3.834v-.262q0-4.044-2.783-6.25-2.784-2.205-7.51-2.205-5.094 0-8.192 2.206t-3.939 6.091l-23.683-.84q1.05-7.352 5.409-13.128 4.41-5.829 12.078-9.138 7.719-3.36 18.537-3.36 7.72 0 14.231 1.837 6.512 1.785 11.343 5.252 4.832 3.413 7.457 8.402 2.68 4.989 2.678 11.395v54.825h-24.156v-11.238h-.63q-2.153 4.095-5.514 6.932-3.309 2.835-7.824 4.253-4.464 1.418-10.083 1.418m7.929-16.804q4.15 0 7.457-1.681 3.361-1.68 5.357-4.621 1.995-2.993 1.995-6.932v-7.667q-1.103.578-2.678 1.05-1.664.51-3.361.893-1.837.42-3.781.735-1.943.315-3.728.578-3.624.578-6.197 1.785-2.52 1.209-3.886 3.151-1.313 1.89-1.313 4.517 0 3.99 2.836 6.091 2.889 2.1 7.299 2.101m150.645-53.144h-26.256q-.526-4.044-2.154-7.3-1.627-3.255-4.306-5.566-2.678-2.31-6.354-3.518-3.623-1.26-8.034-1.26-7.825 0-13.496 3.833-5.62 3.833-8.665 11.08-2.993 7.247-2.993 17.54 0 10.712 3.045 17.96 3.099 7.195 8.665 10.87 5.62 3.623 13.286 3.623 4.306 0 7.825-1.103 3.57-1.103 6.249-3.203a17.7 17.7 0 0 0 4.463-5.199q1.786-3.097 2.469-6.984l26.256.157q-.683 7.143-4.148 14.074-3.414 6.932-9.4 12.656-5.986 5.672-14.599 9.032-8.56 3.361-19.64 3.361-14.6 0-26.152-6.407-11.5-6.46-18.17-18.8-6.669-12.341-6.669-30.037 0-17.75 6.774-30.09 6.775-12.342 18.328-18.748 11.553-6.405 25.889-6.407 9.767 0 18.065 2.73 8.296 2.679 14.598 7.878 6.303 5.146 10.241 12.656 3.938 7.509 4.883 17.172m49.57 70.106q-12.71 0-21.846-5.199-9.085-5.252-14.021-14.599-4.884-9.4-4.884-21.793 0-12.446 4.884-21.794 4.936-9.399 14.021-14.598 9.137-5.252 21.846-5.252 12.71 0 21.793 5.252 9.137 5.199 14.021 14.598 4.936 9.348 4.936 21.794 0 12.393-4.936 21.793-4.884 9.347-14.021 14.599-9.085 5.199-21.793 5.199m.157-19.378q4.621 0 7.825-2.836t4.884-7.877q1.732-5.04 1.732-11.658 0-6.72-1.732-11.763-1.681-5.04-4.884-7.877-3.203-2.835-7.825-2.836-4.78 0-8.087 2.836-3.255 2.835-4.989 7.877-1.68 5.04-1.68 11.763 0 6.616 1.68 11.658 1.734 5.042 4.989 7.877 3.308 2.836 8.087 2.836m76.47-28.147v46.002h-25.68V42.694h24.419v14.808h.893q2.678-7.404 9.137-11.605 6.459-4.254 15.387-4.254 8.507 0 14.756 3.834 6.302 3.78 9.768 10.608 3.518 6.774 3.466 15.859v51.411h-25.68v-46.37q.053-6.72-3.413-10.503-3.414-3.78-9.505-3.78-4.043 0-7.142 1.785-3.045 1.732-4.726 4.989-1.627 3.255-1.68 7.877m93.69 46.002V104.66l39.227-34.344q4.411-3.99 7.51-7.3 3.098-3.36 4.726-6.721 1.628-3.414 1.628-7.405 0-4.464-1.943-7.614-1.943-3.203-5.356-4.937-3.414-1.733-7.825-1.733-4.464 0-7.824 1.838-3.361 1.785-5.252 5.2-1.838 3.412-1.838 8.297h-24.629q0-10.976 4.937-18.958t13.863-12.288q8.98-4.359 20.848-4.359 12.236 0 21.268 4.096t13.969 11.448q4.989 7.299 4.989 16.962 0 6.144-2.468 12.183-2.469 6.04-8.875 13.339-6.354 7.299-18.065 17.487l-12.866 11.868v.683h43.586v20.953zm258.361 1.365q-7.723 0-13.709-2.573-5.934-2.626-9.4-7.877-3.413-5.304-3.413-13.286 0-6.72 2.363-11.343 2.363-4.62 6.512-7.51 4.148-2.888 9.557-4.358c3.606-1.016 7.46-1.698 11.55-2.048 4.59-.42 8.28-.858 11.08-1.313 2.8-.49 4.83-1.173 6.1-2.048 1.29-.91 1.94-2.188 1.94-3.834v-.262q0-4.044-2.79-6.25-2.775-2.205-7.5-2.205c-3.4 0-6.13.735-8.2 2.206-2.06 1.47-3.38 3.5-3.94 6.091l-23.679-.84q1.05-7.352 5.409-13.128 4.412-5.829 12.078-9.138 7.712-3.36 18.542-3.36c5.14 0 9.89.612 14.23 1.837q6.51 1.785 11.34 5.252c3.22 2.275 5.71 5.076 7.46 8.402q2.67 4.989 2.67 11.395v54.825h-24.15v-11.238h-.63q-2.16 4.095-5.52 6.932c-2.2 1.89-4.81 3.308-7.82 4.253q-4.47 1.418-10.08 1.418m7.93-16.804c2.76 0 5.25-.561 7.45-1.681 2.24-1.12 4.03-2.661 5.36-4.621 1.33-1.996 2-4.306 2-6.932v-7.667c-.74.385-1.63.735-2.68 1.05a46 46 0 0 1-3.36.893q-1.845.42-3.78.735c-1.3.21-2.54.403-3.73.578-2.42.385-4.48.98-6.2 1.785-1.68.806-2.98 1.856-3.89 3.151q-1.306 1.89-1.308 4.517.002 3.99 2.838 6.091c1.92 1.4 4.36 2.101 7.3 2.101m5.41-73.73c-3.23 0-6.17-.77-8.83-2.31s-4.79-3.589-6.403-6.144q-2.364-3.885-2.363-8.56 0-4.725 2.363-8.612a18.1 18.1 0 0 1 6.403-6.197C1009 .788 1011.94 0 1015.17 0c3.25 0 6.21.788 8.87 2.363 2.66 1.54 4.78 3.606 6.35 6.197q2.37 3.885 2.37 8.612 0 4.675-2.37 8.56c-1.57 2.555-3.69 4.603-6.35 6.144-2.66 1.54-5.62 2.31-8.87 2.31m0-9.872c2.13 0 3.92-.7 5.35-2.1 1.47-1.436 2.21-3.116 2.21-5.042 0-1.96-.74-3.676-2.21-5.146-1.43-1.47-3.22-2.188-5.35-2.153-2.1.035-3.89.77-5.36 2.205s-2.21 3.133-2.21 5.094c0 1.925.74 3.606 2.21 5.041s3.26 2.137 5.36 2.101m47.61 99.041V42.694h24.94v14.703h.84q2.205-7.98 7.2-11.868c3.32-2.625 7.19-3.938 11.6-3.938 1.19 0 2.42.087 3.68.262 1.26.14 2.43.368 3.52.683v22.318q-1.845-.63-4.83-.997c-1.96-.245-3.71-.368-5.26-.368-3.04 0-5.79.683-8.24 2.048-2.42 1.33-4.32 3.203-5.72 5.619-1.37 2.38-2.05 5.181-2.05 8.402v43.797z" fill="#000"/></mask><g mask="url(#b)"><path d="M1272.76-605.645H.016v1343.18H1272.76z" fill="#000"/></g></g></svg>