<svg width="972" height="1399" viewBox="0 0 972 1399" fill="none" xmlns="http://www.w3.org/2000/svg"><g filter="url(#a)"><ellipse cx="536" cy="180" rx="177" ry="180" fill="#000"/></g><g filter="url(#b)"><ellipse cx="791" cy="483" rx="177" ry="180" fill="#000"/></g><g filter="url(#c)"><path d="M585 735c0 46.944-37.384 85-83.5 85S418 781.944 418 735s37.384-85 83.5-85 83.5 38.056 83.5 85" fill="#000"/></g><path d="M457 520.453c0 128.406-102.303 232.5-228.5 232.5S0 648.859 0 520.453s102.303-232.5 228.5-232.5S457 392.047 457 520.453" fill="#000"/><path stroke="#000" stroke-width="5" d="m305.274 718.962 115 252m72.067-203.084-72 192m347.136-366.542-53 391M558.276 327.501l156.154 643.91"/><mask id="d" maskUnits="userSpaceOnUse" x="306" y="1292" width="525" height="107" fill="#000"><path fill="#fff" d="M306 1292h525v107H306z"/><path d="M378.367 1321.99h-14.609c-.417-2.39-1.185-4.52-2.305-6.37-1.12-1.87-2.513-3.46-4.18-4.76s-3.567-2.28-5.703-2.93q-3.164-1.02-6.836-1.02c-4.349 0-8.203 1.1-11.562 3.29-3.359 2.16-5.99 5.33-7.891 9.53q-2.851 6.24-2.851 15.27c0 6.12.95 11.28 2.851 15.47q2.891 6.255 7.891 9.45c3.359 2.11 7.2 3.17 11.523 3.17 2.396 0 4.636-.32 6.719-.94q3.163-.975 5.664-2.85a16.8 16.8 0 0 0 4.258-4.61c1.172-1.83 1.979-3.91 2.422-6.25l14.609.08a31.4 31.4 0 0 1-3.555 10.7c-1.796 3.33-4.153 6.27-7.07 8.83-2.916 2.52-6.328 4.5-10.234 5.93-3.906 1.41-8.242 2.11-13.008 2.11-7.031 0-13.307-1.62-18.828-4.88q-8.282-4.875-13.047-14.1t-4.766-22.11q0-12.93 4.805-22.11 4.804-9.225 13.086-14.1c5.521-3.26 11.771-4.88 18.75-4.88 4.453 0 8.594.62 12.422 1.87s7.239 3.09 10.234 5.51c2.995 2.39 5.456 5.34 7.383 8.83 1.953 3.46 3.229 7.42 3.828 11.87m29.912 54.22c-3.802 0-7.226-.68-10.273-2.03q-4.531-2.07-7.188-6.09c-1.744-2.69-2.617-5.99-2.617-9.93 0-3.38.625-6.18 1.875-8.39a14.5 14.5 0 0 1 5.117-5.32q3.243-1.995 7.305-3 4.101-1.065 8.477-1.53c3.515-.36 6.367-.69 8.554-.97q3.281-.48 4.766-1.41c1.016-.65 1.523-1.65 1.523-3.01v-.23c0-2.95-.872-5.22-2.617-6.84-1.745-1.61-4.258-2.42-7.539-2.42-3.463 0-6.211.75-8.242 2.26-2.005 1.52-3.359 3.3-4.063 5.36l-13.203-1.88c1.042-3.64 2.761-6.69 5.157-9.14q3.593-3.705 8.789-5.55c3.463-1.25 7.291-1.87 11.484-1.87 2.891 0 5.768.34 8.633 1.01q4.297 1.02 7.851 3.36c2.37 1.54 4.271 3.64 5.703 6.29q2.188 3.99 2.188 9.96V1375h-13.594v-8.24h-.469c-.859 1.66-2.07 3.23-3.632 4.69-1.537 1.43-3.477 2.59-5.821 3.47q-3.476 1.29-8.164 1.29m3.672-10.39q4.259 0 7.383-1.68 3.125-1.725 4.805-4.53a11.55 11.55 0 0 0 1.718-6.13v-7.07c-.442.36-1.197.7-2.265 1.01-1.042.31-2.214.59-3.516.82-1.302.24-2.591.44-3.867.63-1.276.18-2.383.34-3.32.47-2.11.28-3.998.75-5.664 1.4-1.667.65-2.982 1.56-3.946 2.74-.963 1.14-1.445 2.63-1.445 4.45 0 2.6.951 4.57 2.852 5.9s4.322 1.99 7.265 1.99m42.227 31.68V1315h13.906v9.92h.82q1.094-2.19 3.086-4.65c1.328-1.66 3.125-3.08 5.391-4.25q3.398-1.8 8.672-1.8c4.635 0 8.815 1.18 12.539 3.55 3.75 2.35 6.719 5.82 8.906 10.43 2.214 4.59 3.32 10.21 3.32 16.88 0 6.59-1.08 12.19-3.242 16.79-2.161 4.61-5.104 8.13-8.828 10.55q-5.586 3.63-12.656 3.63-5.156 0-8.555-1.71-3.398-1.725-5.469-4.14c-1.354-1.65-2.408-3.19-3.164-4.65h-.586v31.95zm13.867-52.5q0 5.82 1.641 10.2c1.119 2.91 2.721 5.19 4.804 6.83 2.11 1.62 4.662 2.42 7.656 2.42 3.125 0 5.743-.83 7.852-2.5 2.109-1.69 3.698-3.99 4.766-6.91 1.093-2.94 1.64-6.29 1.64-10.04 0-3.72-.534-7.03-1.601-9.92-1.068-2.89-2.657-5.16-4.766-6.8q-3.163-2.46-7.891-2.46c-3.02 0-5.585.79-7.695 2.38-2.109 1.59-3.711 3.82-4.805 6.68-1.067 2.87-1.601 6.24-1.601 10.12m54.883 30v-60h13.711v10h.625q1.64-5.19 5.625-8.01 4.023-2.85 9.179-2.85 1.173 0 2.618.12 1.483.075 2.46.27v13.01c-.598-.21-1.549-.39-2.851-.55a27 27 0 0 0-3.711-.27q-3.867 0-6.953 1.68a12.3 12.3 0 0 0-4.805 4.57c-1.172 1.95-1.758 4.2-1.758 6.76V1375zm59.804 1.21c-3.802 0-7.226-.68-10.273-2.03q-4.531-2.07-7.188-6.09c-1.744-2.69-2.617-5.99-2.617-9.93 0-3.38.625-6.18 1.875-8.39a14.5 14.5 0 0 1 5.117-5.32q3.243-1.995 7.305-3a58 58 0 0 1 8.477-1.53c3.515-.36 6.367-.69 8.554-.97q3.281-.48 4.766-1.41c1.016-.65 1.523-1.65 1.523-3.01v-.23c0-2.95-.872-5.22-2.617-6.84-1.744-1.61-4.258-2.42-7.539-2.42-3.463 0-6.211.75-8.242 2.26-2.005 1.52-3.359 3.3-4.062 5.36l-13.204-1.88c1.042-3.64 2.761-6.69 5.157-9.14q3.594-3.705 8.789-5.55c3.463-1.25 7.291-1.87 11.484-1.87 2.891 0 5.768.34 8.633 1.01q4.298 1.02 7.851 3.36c2.37 1.54 4.271 3.64 5.704 6.29q2.187 3.99 2.187 9.96V1375h-13.594v-8.24h-.468c-.86 1.66-2.071 3.23-3.633 4.69-1.537 1.43-3.477 2.59-5.821 3.47q-3.476 1.29-8.164 1.29m3.672-10.39q4.259 0 7.383-1.68 3.125-1.725 4.805-4.53a11.55 11.55 0 0 0 1.719-6.13v-7.07c-.443.36-1.198.7-2.266 1.01-1.042.31-2.214.59-3.516.82-1.302.24-2.591.44-3.867.63-1.276.18-2.383.34-3.32.47-2.11.28-3.998.75-5.664 1.4-1.667.65-2.982 1.56-3.946 2.74-.963 1.14-1.445 2.63-1.445 4.45 0 2.6.951 4.57 2.852 5.9s4.323 1.99 7.265 1.99m111.328-43.83h-14.609c-.417-2.39-1.185-4.52-2.305-6.37a17.1 17.1 0 0 0-4.179-4.76c-1.667-1.3-3.568-2.28-5.703-2.93q-3.165-1.02-6.836-1.02c-4.349 0-8.204 1.1-11.563 3.29-3.359 2.16-5.989 5.33-7.891 9.53q-2.851 6.24-2.851 15.27c0 6.12.95 11.28 2.851 15.47q2.892 6.255 7.891 9.45c3.359 2.11 7.201 3.17 11.524 3.17 2.395 0 4.635-.32 6.718-.94q3.165-.975 5.664-2.85a16.8 16.8 0 0 0 4.258-4.61c1.172-1.83 1.979-3.91 2.422-6.25l14.609.08a31.4 31.4 0 0 1-3.554 10.7c-1.797 3.33-4.154 6.27-7.071 8.83-2.916 2.52-6.328 4.5-10.234 5.93-3.906 1.41-8.242 2.11-13.008 2.11-7.031 0-13.307-1.62-18.828-4.88q-8.281-4.875-13.047-14.1-4.765-9.225-4.765-22.11 0-12.93 4.804-22.11 4.804-9.225 13.086-14.1c5.521-3.26 11.771-4.88 18.75-4.88 4.453 0 8.594.62 12.422 1.87s7.24 3.09 10.234 5.51c2.995 2.39 5.456 5.34 7.383 8.83 1.953 3.46 3.229 7.42 3.828 11.87m38.819 54.18q-8.79 0-15.235-3.87c-4.296-2.57-7.63-6.18-10-10.82-2.343-4.63-3.515-10.05-3.515-16.25 0-6.19 1.172-11.62 3.515-16.28q3.555-7.005 10-10.86 6.445-3.87 15.235-3.87t15.234 3.87q6.445 3.855 9.961 10.86c2.37 4.66 3.555 10.09 3.555 16.28 0 6.2-1.185 11.62-3.555 16.25-2.344 4.64-5.664 8.25-9.961 10.82q-6.445 3.87-15.234 3.87m.078-11.33q4.765 0 7.969-2.61 3.203-2.655 4.765-7.11c1.068-2.97 1.602-6.28 1.602-9.92 0-3.68-.534-7-1.602-9.97q-1.562-4.485-4.765-7.14c-2.136-1.77-4.792-2.66-7.969-2.66-3.255 0-5.964.89-8.125 2.66q-3.203 2.655-4.805 7.14c-1.041 2.97-1.562 6.29-1.562 9.97 0 3.64.521 6.95 1.562 9.92q1.601 4.455 4.805 7.11 3.242 2.61 8.125 2.61m54.814-25V1375h-14.14v-60h13.515v10.2h.703q2.071-5.04 6.602-8.01 4.57-2.97 11.289-2.97c4.141 0 7.748.88 10.82 2.65 3.099 1.78 5.495 4.34 7.188 7.7 1.719 3.36 2.565 7.44 2.539 12.23v38.2h-14.141v-36.02c0-4.01-1.041-7.14-3.125-9.41-2.057-2.27-4.908-3.4-8.554-3.4-2.474 0-4.675.55-6.602 1.64q-2.851 1.605-4.492 4.65-1.602 3.045-1.602 7.38"/></mask><path d="M378.367 1321.99h-14.609c-.417-2.39-1.185-4.52-2.305-6.37-1.12-1.87-2.513-3.46-4.18-4.76s-3.567-2.28-5.703-2.93q-3.164-1.02-6.836-1.02c-4.349 0-8.203 1.1-11.562 3.29-3.359 2.16-5.99 5.33-7.891 9.53q-2.851 6.24-2.851 15.27c0 6.12.95 11.28 2.851 15.47q2.891 6.255 7.891 9.45c3.359 2.11 7.2 3.17 11.523 3.17 2.396 0 4.636-.32 6.719-.94q3.163-.975 5.664-2.85a16.8 16.8 0 0 0 4.258-4.61c1.172-1.83 1.979-3.91 2.422-6.25l14.609.08a31.4 31.4 0 0 1-3.555 10.7c-1.796 3.33-4.153 6.27-7.07 8.83-2.916 2.52-6.328 4.5-10.234 5.93-3.906 1.41-8.242 2.11-13.008 2.11-7.031 0-13.307-1.62-18.828-4.88q-8.282-4.875-13.047-14.1t-4.766-22.11q0-12.93 4.805-22.11 4.804-9.225 13.086-14.1c5.521-3.26 11.771-4.88 18.75-4.88 4.453 0 8.594.62 12.422 1.87s7.239 3.09 10.234 5.51c2.995 2.39 5.456 5.34 7.383 8.83 1.953 3.46 3.229 7.42 3.828 11.87m29.912 54.22c-3.802 0-7.226-.68-10.273-2.03q-4.531-2.07-7.188-6.09c-1.744-2.69-2.617-5.99-2.617-9.93 0-3.38.625-6.18 1.875-8.39a14.5 14.5 0 0 1 5.117-5.32q3.243-1.995 7.305-3 4.101-1.065 8.477-1.53c3.515-.36 6.367-.69 8.554-.97q3.281-.48 4.766-1.41c1.016-.65 1.523-1.65 1.523-3.01v-.23c0-2.95-.872-5.22-2.617-6.84-1.745-1.61-4.258-2.42-7.539-2.42-3.463 0-6.211.75-8.242 2.26-2.005 1.52-3.359 3.3-4.063 5.36l-13.203-1.88c1.042-3.64 2.761-6.69 5.157-9.14q3.593-3.705 8.789-5.55c3.463-1.25 7.291-1.87 11.484-1.87 2.891 0 5.768.34 8.633 1.01q4.297 1.02 7.851 3.36c2.37 1.54 4.271 3.64 5.703 6.29q2.188 3.99 2.188 9.96V1375h-13.594v-8.24h-.469c-.859 1.66-2.07 3.23-3.632 4.69-1.537 1.43-3.477 2.59-5.821 3.47q-3.476 1.29-8.164 1.29m3.672-10.39q4.259 0 7.383-1.68 3.125-1.725 4.805-4.53a11.55 11.55 0 0 0 1.718-6.13v-7.07c-.442.36-1.197.7-2.265 1.01-1.042.31-2.214.59-3.516.82-1.302.24-2.591.44-3.867.63-1.276.18-2.383.34-3.32.47-2.11.28-3.998.75-5.664 1.4-1.667.65-2.982 1.56-3.946 2.74-.963 1.14-1.445 2.63-1.445 4.45 0 2.6.951 4.57 2.852 5.9s4.322 1.99 7.265 1.99m42.227 31.68V1315h13.906v9.92h.82q1.094-2.19 3.086-4.65c1.328-1.66 3.125-3.08 5.391-4.25q3.398-1.8 8.672-1.8c4.635 0 8.815 1.18 12.539 3.55 3.75 2.35 6.719 5.82 8.906 10.43 2.214 4.59 3.32 10.21 3.32 16.88 0 6.59-1.08 12.19-3.242 16.79-2.161 4.61-5.104 8.13-8.828 10.55q-5.586 3.63-12.656 3.63-5.156 0-8.555-1.71-3.398-1.725-5.469-4.14c-1.354-1.65-2.408-3.19-3.164-4.65h-.586v31.95zm13.867-52.5q0 5.82 1.641 10.2c1.119 2.91 2.721 5.19 4.804 6.83 2.11 1.62 4.662 2.42 7.656 2.42 3.125 0 5.743-.83 7.852-2.5 2.109-1.69 3.698-3.99 4.766-6.91 1.093-2.94 1.64-6.29 1.64-10.04 0-3.72-.534-7.03-1.601-9.92-1.068-2.89-2.657-5.16-4.766-6.8q-3.163-2.46-7.891-2.46c-3.02 0-5.585.79-7.695 2.38-2.109 1.59-3.711 3.82-4.805 6.68-1.067 2.87-1.601 6.24-1.601 10.12m54.883 30v-60h13.711v10h.625q1.64-5.19 5.625-8.01 4.023-2.85 9.179-2.85 1.173 0 2.618.12 1.483.075 2.46.27v13.01c-.598-.21-1.549-.39-2.851-.55a27 27 0 0 0-3.711-.27q-3.867 0-6.953 1.68a12.3 12.3 0 0 0-4.805 4.57c-1.172 1.95-1.758 4.2-1.758 6.76V1375zm59.804 1.21c-3.802 0-7.226-.68-10.273-2.03q-4.531-2.07-7.188-6.09c-1.744-2.69-2.617-5.99-2.617-9.93 0-3.38.625-6.18 1.875-8.39a14.5 14.5 0 0 1 5.117-5.32q3.243-1.995 7.305-3a58 58 0 0 1 8.477-1.53c3.515-.36 6.367-.69 8.554-.97q3.281-.48 4.766-1.41c1.016-.65 1.523-1.65 1.523-3.01v-.23c0-2.95-.872-5.22-2.617-6.84-1.744-1.61-4.258-2.42-7.539-2.42-3.463 0-6.211.75-8.242 2.26-2.005 1.52-3.359 3.3-4.062 5.36l-13.204-1.88c1.042-3.64 2.761-6.69 5.157-9.14q3.594-3.705 8.789-5.55c3.463-1.25 7.291-1.87 11.484-1.87 2.891 0 5.768.34 8.633 1.01q4.298 1.02 7.851 3.36c2.37 1.54 4.271 3.64 5.704 6.29q2.187 3.99 2.187 9.96V1375h-13.594v-8.24h-.468c-.86 1.66-2.071 3.23-3.633 4.69-1.537 1.43-3.477 2.59-5.821 3.47q-3.476 1.29-8.164 1.29m3.672-10.39q4.259 0 7.383-1.68 3.125-1.725 4.805-4.53a11.55 11.55 0 0 0 1.719-6.13v-7.07c-.443.36-1.198.7-2.266 1.01-1.042.31-2.214.59-3.516.82-1.302.24-2.591.44-3.867.63-1.276.18-2.383.34-3.32.47-2.11.28-3.998.75-5.664 1.4-1.667.65-2.982 1.56-3.946 2.74-.963 1.14-1.445 2.63-1.445 4.45 0 2.6.951 4.57 2.852 5.9s4.323 1.99 7.265 1.99m111.328-43.83h-14.609c-.417-2.39-1.185-4.52-2.305-6.37a17.1 17.1 0 0 0-4.179-4.76c-1.667-1.3-3.568-2.28-5.703-2.93q-3.165-1.02-6.836-1.02c-4.349 0-8.204 1.1-11.563 3.29-3.359 2.16-5.989 5.33-7.891 9.53q-2.851 6.24-2.851 15.27c0 6.12.95 11.28 2.851 15.47q2.892 6.255 7.891 9.45c3.359 2.11 7.201 3.17 11.524 3.17 2.395 0 4.635-.32 6.718-.94q3.165-.975 5.664-2.85a16.8 16.8 0 0 0 4.258-4.61c1.172-1.83 1.979-3.91 2.422-6.25l14.609.08a31.4 31.4 0 0 1-3.554 10.7c-1.797 3.33-4.154 6.27-7.071 8.83-2.916 2.52-6.328 4.5-10.234 5.93-3.906 1.41-8.242 2.11-13.008 2.11-7.031 0-13.307-1.62-18.828-4.88q-8.281-4.875-13.047-14.1-4.765-9.225-4.765-22.11 0-12.93 4.804-22.11 4.804-9.225 13.086-14.1c5.521-3.26 11.771-4.88 18.75-4.88 4.453 0 8.594.62 12.422 1.87s7.24 3.09 10.234 5.51c2.995 2.39 5.456 5.34 7.383 8.83 1.953 3.46 3.229 7.42 3.828 11.87m38.819 54.18q-8.79 0-15.235-3.87c-4.296-2.57-7.63-6.18-10-10.82-2.343-4.63-3.515-10.05-3.515-16.25 0-6.19 1.172-11.62 3.515-16.28q3.555-7.005 10-10.86 6.445-3.87 15.235-3.87t15.234 3.87q6.445 3.855 9.961 10.86c2.37 4.66 3.555 10.09 3.555 16.28 0 6.2-1.185 11.62-3.555 16.25-2.344 4.64-5.664 8.25-9.961 10.82q-6.445 3.87-15.234 3.87m.078-11.33q4.765 0 7.969-2.61 3.203-2.655 4.765-7.11c1.068-2.97 1.602-6.28 1.602-9.92 0-3.68-.534-7-1.602-9.97q-1.562-4.485-4.765-7.14c-2.136-1.77-4.792-2.66-7.969-2.66-3.255 0-5.964.89-8.125 2.66q-3.203 2.655-4.805 7.14c-1.041 2.97-1.562 6.29-1.562 9.97 0 3.64.521 6.95 1.562 9.92q1.601 4.455 4.805 7.11 3.242 2.61 8.125 2.61m54.814-25V1375h-14.14v-60h13.515v10.2h.703q2.071-5.04 6.602-8.01 4.57-2.97 11.289-2.97c4.141 0 7.748.88 10.82 2.65 3.099 1.78 5.495 4.34 7.188 7.7 1.719 3.36 2.565 7.44 2.539 12.23v38.2h-14.141v-36.02c0-4.01-1.041-7.14-3.125-9.41-2.057-2.27-4.908-3.4-8.554-3.4-2.474 0-4.675.55-6.602 1.64q-2.851 1.605-4.492 4.65-1.602 3.045-1.602 7.38" fill="#000"/><path d="M378.367 1321.99v1h1.144l-.153-1.13zm-14.609 0-.985.17.144.83h.841zm-2.305-6.37-.858.52h.003zm-4.18-4.76.616-.79zm-5.703-2.93-.305.95h.007l.007.01zm-18.398 2.27.541.84.005-.01zm-7.891 9.53.91.41h.001zm0 30.74-.911.41.004.01zm7.891 9.45-.54.84.008.01zm18.242 2.23.287.96.008-.01zm5.664-2.85-.594-.81-.006.01zm4.258-4.61-.841-.54-.006.01zm2.422-6.25.005-1-.833-.01-.155.82zm14.609.08.99.14.163-1.14h-1.147zm-3.555 10.7-.877-.48h-.003zm-7.07 8.83.655.75h.004zm-10.234 5.93.339.95.005-.01zm-31.836-2.77.508-.86zm-13.047-14.1-.888.46zm.039-44.22.886.46h.001zm13.086-14.1-.508-.86zm31.172-3.01.31-.95zm10.234 5.51-.629.78h.005zm7.383 8.83-.875.48.004.01zm3.828 10.87h-14.609v2h14.609zm-13.624.83c-.435-2.5-1.243-4.75-2.435-6.71l-1.71 1.03c1.048 1.73 1.777 3.74 2.175 6.02zm-2.431-6.71a18.1 18.1 0 0 0-4.423-5.04l-1.231 1.58c1.566 1.22 2.878 2.72 3.937 4.49zm-4.423-5.04c-1.769-1.38-3.781-2.41-6.027-3.1l-.583 1.92c2.024.61 3.814 1.54 5.379 2.76zm-6.013-3.09c-2.218-.71-4.601-1.07-7.142-1.07v2c2.355 0 4.53.33 6.531.97zm-7.142-1.07c-4.525 0-8.572 1.15-12.108 3.45l1.092 1.67c3.183-2.07 6.844-3.12 11.016-3.12zm-12.103 3.44c-3.545 2.29-6.292 5.62-8.261 9.96l1.822.83c1.834-4.05 4.347-7.06 7.521-9.1zm-8.26 9.96c-1.976 4.33-2.941 9.57-2.941 15.69h2c0-5.92.935-10.86 2.761-14.86zM321.43 1335c0 6.22.965 11.52 2.94 15.88l1.822-.82c-1.826-4.03-2.762-9.04-2.762-15.06zm2.944 15.89c1.994 4.31 4.74 7.62 8.258 9.87l1.079-1.68c-3.148-2.02-5.662-5.01-7.522-9.03zm8.266 9.88c3.533 2.22 7.562 3.32 12.055 3.32v-2c-4.152 0-7.806-1.01-10.991-3.02zm12.055 3.32c2.484 0 4.821-.33 7.006-.98l-.574-1.92c-1.981.59-4.123.9-6.432.9zm7.014-.99q3.321-1.02 5.969-3l-1.2-1.6c-1.569 1.17-3.353 2.07-5.359 2.69zm5.963-3c1.796-1.32 3.3-2.95 4.511-4.88l-1.694-1.06a15.7 15.7 0 0 1-4.005 4.33zm4.505-4.87c1.248-1.94 2.099-4.15 2.563-6.61l-1.965-.37c-.421 2.23-1.185 4.19-2.28 5.9zm1.575-5.79 14.61.08.011-2-14.61-.08zm13.625-1.07a30.5 30.5 0 0 1-3.442 10.37l1.755.96a32.5 32.5 0 0 0 3.667-11.04zm-3.445 10.37q-2.606 4.845-6.848 8.55l1.317 1.51c3.004-2.63 5.437-5.67 7.292-9.11zm-6.844 8.55c-2.819 2.44-6.123 4.36-9.924 5.76l.688 1.87c4.011-1.47 7.53-3.51 10.545-6.12zm-9.919 5.75c-3.783 1.37-8.002 2.05-12.669 2.05v2c4.864 0 9.317-.71 13.347-2.16zm-12.669 2.05c-6.87 0-12.968-1.58-18.32-4.74l-1.016 1.72c5.689 3.36 12.144 5.02 19.336 5.02zm-18.32-4.74c-5.346-3.15-9.569-7.71-12.667-13.7l-1.776.92c3.256 6.3 7.731 11.14 13.427 14.5zm-12.667-13.7c-3.088-5.97-4.654-13.18-4.654-21.65h-2c0 8.72 1.612 16.25 4.878 22.57zm-4.654-21.65c0-8.5 1.579-15.7 4.691-21.65l-1.772-.92c-3.294 6.29-4.919 13.83-4.919 22.57zm4.692-21.65c3.124-5.99 7.36-10.55 12.707-13.7l-1.016-1.72c-5.695 3.36-10.182 8.2-13.465 14.5zm12.707-13.7c5.353-3.16 11.425-4.74 18.242-4.74v-2c-7.141 0-13.57 1.66-19.258 5.02zm18.242-4.74c4.359 0 8.394.61 12.111 1.82l.621-1.9c-3.938-1.29-8.185-1.92-12.732-1.92zm12.111 1.82c3.718 1.22 7.021 2.99 9.916 5.34l1.258-1.56c-3.094-2.5-6.614-4.39-10.553-5.68zm9.921 5.34c2.888 2.31 5.265 5.15 7.132 8.53l1.75-.97q-2.981-5.4-7.633-9.12zm7.136 8.54c1.883 3.34 3.124 7.17 3.708 11.52l1.982-.27c-.613-4.56-1.925-8.65-3.948-12.23zm24.338 63.57-.416.91h.01zm-7.188-6.09-.838.54.004.01zm-.742-18.32-.871-.5zm5.117-5.32-.523-.85zm7.305-3 .243.97.006-.01zm8.477-1.53-.104-.99h-.003zm8.554-.97.13.99h.012zm4.766-1.41.534.84h.006zm-1.094-10.08.679-.73zm-15.781-.16-.597-.8-.005.01zm-4.063 5.36-.14.99.819.11.268-.78zm-13.203-1.88-.961-.27-.315 1.1 1.136.16zm5.157-9.14.714.7h.004zm8.789-5.55.333.95.006-.01zm27.968 2.5-.55.84h.006zm5.703 6.29-.88.48h.004zm2.188 50.12v1h1v-1zm-13.594 0h-1v1h1zm0-8.24h1v-1h-1zm-.469 0v-1h-.609l-.279.54zm-3.632 4.69.682.73zm-5.821 3.47.348.94h.006zm2.891-10.78.473.88h.009zm4.805-4.53-.854-.52-.005.01zm1.718-13.2h1v-2.12l-1.635 1.34zm-2.265 1.01-.281-.96h-.007zm-3.516.82.177.99zm-7.187 1.1.134.99h.003zm-5.664 1.4-.364-.93zm-3.946 2.74.766.64.007-.01zm1.407 10.35-.573.82zm3.593 11.38c-3.681 0-6.965-.65-9.867-1.94l-.812 1.82c3.191 1.42 6.757 2.12 10.679 2.12zm-9.858-1.94c-2.856-1.3-5.104-3.21-6.768-5.74l-1.669 1.11c1.878 2.84 4.421 4.99 7.606 6.45zm-6.764-5.73c-1.618-2.49-2.456-5.59-2.456-9.38h-2c0 4.09.907 7.59 2.779 10.47zm-2.456-9.38c0-3.26.604-5.88 1.746-7.9l-1.742-.99c-1.358 2.41-2.004 5.39-2.004 8.89zm1.746-7.9a13.4 13.4 0 0 1 4.77-4.95l-1.047-1.71a15.54 15.54 0 0 0-5.465 5.67zm4.77-4.95c2.066-1.27 4.405-2.24 7.024-2.89l-.485-1.94q-4.199 1.035-7.586 3.12zm7.03-2.9a57.5 57.5 0 0 1 8.334-1.49l-.213-1.99c-2.963.32-5.836.83-8.619 1.55zm8.331-1.49c3.52-.37 6.381-.7 8.581-.98l-.26-1.99c-2.175.29-5.016.61-8.528.98zm8.593-.98c2.225-.32 3.985-.81 5.158-1.56l-1.068-1.69c-.806.51-2.223.96-4.373 1.27zm5.164-1.56c1.341-.86 1.983-2.2 1.983-3.85h-2c0 1.06-.373 1.73-1.063 2.17zm1.983-3.85v-.23h-2v.23zm0-.23c0-3.15-.941-5.73-2.938-7.57l-1.358 1.46c1.493 1.39 2.296 3.37 2.296 6.11zm-2.938-7.57c-1.99-1.84-4.781-2.69-8.218-2.69v2c3.126 0 5.36.77 6.86 2.15zm-8.218-2.69c-3.601 0-6.582.78-8.839 2.46l1.194 1.61c1.805-1.35 4.319-2.07 7.645-2.07zm-8.844 2.47c-2.139 1.61-3.629 3.55-4.407 5.82l1.893.65c.629-1.84 1.847-3.47 3.718-4.88zm-3.32 5.16-13.203-1.88-.281 1.98 13.203 1.88zm-12.382-.61c1.001-3.51 2.642-6.4 4.909-8.72l-1.429-1.4c-2.524 2.58-4.321 5.78-5.403 9.57zm4.913-8.72c2.281-2.36 5.076-4.13 8.404-5.3l-.667-1.89c-3.599 1.27-6.663 3.2-9.174 5.79zm8.41-5.31c3.341-1.2 7.052-1.81 11.145-1.81v-2c-4.293 0-8.237.64-11.824 1.93zm11.145-1.81q4.217 0 8.403.99l.46-1.95a38.7 38.7 0 0 0-8.863-1.04zm8.403.99c2.755.65 5.263 1.72 7.531 3.22l1.101-1.67c-2.471-1.63-5.198-2.8-8.172-3.5zm7.537 3.22c2.22 1.44 4.009 3.41 5.367 5.93l1.761-.95q-2.26-4.2-6.04-6.66zm5.371 5.93c1.356 2.47 2.064 5.62 2.064 9.48h2c0-4.1-.75-7.6-2.311-10.44zm2.064 9.48V1375h2v-40.16zm1 39.16h-13.594v2h13.594zm-12.594 1v-8.24h-2v8.24zm-1-9.24h-.469v2h.469zm-1.357.54c-.8 1.55-1.937 3.02-3.427 4.41l1.365 1.47c1.635-1.53 2.92-3.18 3.839-4.96zm-3.426 4.41c-1.425 1.33-3.247 2.43-5.492 3.28l.707 1.87c2.442-.93 4.5-2.15 6.149-3.68zm-5.486 3.27c-2.182.81-4.78 1.23-7.817 1.23v2c3.214 0 6.058-.44 8.512-1.35zm-4.145-7.16c2.971 0 5.601-.59 7.856-1.8l-.946-1.76c-1.912 1.03-4.204 1.56-6.91 1.56zm7.865-1.8c2.225-1.23 3.962-2.86 5.181-4.9l-1.717-1.02c-1.021 1.71-2.486 3.1-4.428 4.16zm5.176-4.89a12.54 12.54 0 0 0 1.865-6.65h-2c0 2.03-.522 3.89-1.572 5.61zm1.865-6.65v-7.07h-2v7.07zm-1.635-7.85c-.281.24-.874.53-1.911.83l.562 1.92c1.098-.32 2.015-.7 2.62-1.2zm-1.918.83c-.998.3-2.132.57-3.405.8l.354 1.97a32 32 0 0 0 3.626-.85zm-3.405.8c-1.291.23-2.568.44-3.831.62l.282 1.98q1.933-.285 3.903-.63zm-3.831.62c-1.276.18-2.381.34-3.317.47l.275 1.98c.939-.13 2.048-.29 3.324-.47zm-3.314.47c-2.173.29-4.14.78-5.893 1.46l.727 1.86c1.581-.61 3.39-1.07 5.435-1.34zm-5.893 1.46c-1.798.7-3.264 1.71-4.354 3.03l1.545 1.27c.837-1.02 2-1.84 3.536-2.44zm-4.347 3.02c-1.146 1.37-1.68 3.09-1.68 5.1h2c0-1.64.43-2.88 1.211-3.81zm-1.68 5.1c0 2.88 1.074 5.18 3.279 6.72l1.145-1.64c-1.597-1.12-2.424-2.76-2.424-5.08zm3.279 6.72c2.109 1.47 4.746 2.17 7.838 2.17v-2c-2.793 0-5-.63-6.693-1.81zm50.065 32.85h-1v1h1zm0-82.5v-1h-1v1zm13.906 0h1v-1h-1zm0 9.92h-1v1h1zm.82 0v1h.618l.277-.55zm3.086-4.65.778.63h.004zm5.391-4.25.459.88h.008zm21.211 1.75-.537.85h.007zm8.906 10.43-.903.43.003.01zm.078 33.67-.905-.42zm-8.828 10.55.545.84zm-21.211 1.92-.451.89zm-5.469-4.14-.771.63.006.01.005.01zm-3.164-4.65.888-.46-.279-.54h-.609zm-.586 0v-1h-1v1zm0 31.95v1h1v-1zm1.368-42.3-.937.35h.003zm4.804 6.83-.619.79.011.01zm15.508-.08.62.79.006-.01zm4.766-6.91-.938-.35-.001.01zm.039-19.96.938-.35zm-4.766-6.8.614-.79zm-15.586-.08.602.8zm-4.805 6.68-.934-.35h-.003zm-14.468 62.62V1315h-2v82.5zm-1-81.5h13.906v-2h-13.906zm12.906-1v9.92h2V1315zm1 10.92h.82v-2h-.82zm1.715-.55c.689-1.38 1.673-2.87 2.968-4.47l-1.554-1.26c-1.361 1.69-2.434 3.3-3.203 4.83zm2.973-4.47c1.225-1.54 2.903-2.88 5.068-4l-.919-1.77c-2.366 1.22-4.281 2.72-5.713 4.52zm5.076-4c2.078-1.1 4.794-1.68 8.205-1.68v-2c-3.621 0-6.686.61-9.14 1.91zm8.205-1.68c4.455 0 8.447 1.13 12.002 3.4l1.074-1.69c-3.893-2.48-8.261-3.71-13.076-3.71zm12.009 3.4c3.564 2.23 6.414 5.55 8.533 10.01l1.806-.86c-2.256-4.75-5.344-8.38-9.279-10.84zm8.536 10.02c2.131 4.41 3.22 9.88 3.22 16.44h2c0-6.77-1.123-12.56-3.419-17.31zm3.22 16.44c0 6.48-1.064 11.93-3.147 16.37l1.811.85c2.239-4.78 3.336-10.53 3.336-17.22zm-3.147 16.37c-2.094 4.47-4.922 7.83-8.468 10.13l1.09 1.68c3.902-2.54 6.96-6.21 9.189-10.96zm-8.468 10.13c-3.552 2.31-7.579 3.47-12.111 3.47v2c4.894 0 9.305-1.26 13.201-3.79zm-12.111 3.47c-3.334 0-6.018-.55-8.104-1.61l-.902 1.79c2.446 1.24 5.464 1.82 9.006 1.82zm-8.104-1.61c-2.17-1.09-3.88-2.4-5.16-3.89l-1.52 1.3c1.481 1.73 3.417 3.18 5.778 4.38zm-5.148-3.88c-1.322-1.6-2.333-3.09-3.048-4.47l-1.776.92c.796 1.53 1.894 3.14 3.281 4.82zm-3.936-5.01h-.586v2h.586zm-1.586 1v31.95h2v-31.95zm1 30.95h-14.14v2h14.14zm-1.273-51.5c0 3.97.559 7.49 1.704 10.55l1.873-.71c-1.043-2.78-1.577-6.05-1.577-9.84zm1.707 10.55c1.173 3.06 2.871 5.5 5.12 7.27l1.237-1.57c-1.918-1.52-3.423-3.63-4.49-6.41zm5.13 7.28c2.306 1.76 5.079 2.62 8.264 2.62v-2c-2.804 0-5.135-.75-7.048-2.21zm8.264 2.62c3.312 0 6.158-.88 8.472-2.71l-1.24-1.57c-1.905 1.5-4.293 2.28-7.232 2.28zm8.478-2.72c2.272-1.82 3.958-4.29 5.079-7.35l-1.878-.68c-1.015 2.77-2.506 4.91-4.453 6.47zm5.077-7.34c1.142-3.08 1.703-6.54 1.703-10.39h-2c0 3.65-.533 6.88-1.578 9.69zm1.703-10.39c0-3.82-.547-7.25-1.663-10.27l-1.876.69c1.019 2.76 1.539 5.95 1.539 9.58zm-1.663-10.27c-1.122-3.04-2.812-5.47-5.09-7.24l-1.228 1.58c1.941 1.51 3.429 3.61 4.442 6.35zm-5.09-7.24c-2.315-1.8-5.172-2.67-8.505-2.67v2c2.971 0 5.373.77 7.277 2.25zm-8.505-2.67c-3.205 0-5.989.85-8.296 2.58l1.203 1.6c1.911-1.44 4.257-2.18 7.093-2.18zm-8.296 2.58c-2.283 1.72-3.988 4.11-5.138 7.13l1.869.71c1.037-2.72 2.536-4.78 4.472-6.24zm-5.141 7.13c-1.118 3.01-1.664 6.5-1.664 10.47h2c0-3.79.522-7.04 1.539-9.77zm54.219 40.47h-1v1h1zm0-60v-1h-1v1zm13.711 0h1v-1h-1zm0 10h-1v1h1zm.625 0v1h.733l.22-.7zm5.625-8.01.576.82h.002zm11.797-2.73-.081.99.014.01h.014zm2.46.27h1v-.82l-.803-.16zm0 13.01-.328.94 1.328.47v-1.41zm-2.851-.55-.141.99h.011l.011.01zm-10.664 1.41.474.88h.004zm-6.563 46.6v1h1v-1zm-13.14 0v-60h-2v60zm-1-59h13.711v-2h-13.711zm12.711-1v10h2v-10zm1 11h.625v-2h-.625zm1.578-.7c1.036-3.28 2.792-5.76 5.248-7.49l-1.153-1.63c-2.856 2.01-4.85 4.87-6.002 8.52zm5.25-7.49c2.505-1.78 5.361-2.67 8.601-2.67v-2c-3.634 0-6.898 1.01-9.758 3.04zm8.601-2.67c.749 0 1.594.04 2.537.11l.161-1.99q-1.477-.12-2.698-.12zm2.565.12c.962.05 1.731.13 2.317.25l.393-1.96c-.716-.14-1.588-.24-2.605-.29zm1.513-.73v13.01h2v-13.01zm1.329 12.06c-.706-.24-1.746-.43-3.061-.59l-.238 1.99c1.289.15 2.15.32 2.642.49zm-3.039-.59a27 27 0 0 0-3.852-.28v2c1.147 0 2.337.09 3.57.26zm-3.852-.28c-2.728 0-5.213.59-7.431 1.8l.956 1.76c1.896-1.04 4.047-1.56 6.475-1.56zm-7.427 1.8c-2.188 1.18-3.923 2.82-5.188 4.93l1.715 1.03c1.078-1.79 2.546-3.19 4.421-4.2zm-5.188 4.93c-1.276 2.13-1.901 4.57-1.901 7.28h2c0-2.4.548-4.47 1.616-6.25zm-1.901 7.28V1375h2v-35.27zm1 34.27h-14.14v2h14.14zm35.391.18-.416.91h.01zm-7.188-6.09-.838.54.004.01zm-.742-18.32-.87-.5zm5.117-5.32-.523-.85zm7.305-3 .243.97.006-.01zm8.477-1.53-.103-.99h-.004zm8.554-.97.13.99h.012zm4.766-1.41.534.84h.006zm-1.094-10.08.679-.73zm-15.781-.16-.597-.8-.005.01zm-4.062 5.36-.141.99.819.11.268-.78zm-13.204-1.88-.961-.27-.315 1.1 1.136.16zm5.157-9.14.714.7h.004zm8.789-5.55.333.95.006-.01zm27.968 2.5-.55.84h.006zm5.704 6.29-.881.48h.004zm2.187 50.12v1h1v-1zm-13.594 0h-1v1h1zm0-8.24h1v-1h-1zm-.468 0v-1h-.61l-.279.54zm-3.633 4.69.682.73zm-5.821 3.47.348.94h.006zm2.891-10.78.474.88h.008zm4.805-4.53-.854-.52-.005.01zm1.719-13.2h1v-2.12l-1.636 1.34zm-2.266 1.01-.281-.96h-.006zm-3.516.82.177.99zm-7.187 1.1.134.99h.003zm-5.664 1.4-.364-.93zm-3.946 2.74.766.64.007-.01zm1.407 10.35-.573.82zm3.593 11.38c-3.681 0-6.965-.65-9.867-1.94l-.812 1.82c3.191 1.42 6.757 2.12 10.679 2.12zm-9.857-1.94c-2.857-1.3-5.105-3.21-6.769-5.74l-1.669 1.11c1.878 2.84 4.421 4.99 7.606 6.45zm-6.765-5.73c-1.618-2.49-2.456-5.59-2.456-9.38h-2c0 4.09.907 7.59 2.779 10.47zm-2.456-9.38c0-3.26.604-5.88 1.746-7.9l-1.741-.99c-1.359 2.41-2.005 5.39-2.005 8.89zm1.746-7.9a13.4 13.4 0 0 1 4.77-4.95l-1.047-1.71a15.53 15.53 0 0 0-5.464 5.67zm4.77-4.95c2.066-1.27 4.405-2.24 7.024-2.89l-.485-1.94q-4.199 1.035-7.586 3.12zm7.03-2.9a57.5 57.5 0 0 1 8.334-1.49l-.213-1.99c-2.963.32-5.836.83-8.619 1.55zm8.331-1.49c3.52-.37 6.381-.7 8.581-.98l-.259-1.99c-2.175.29-5.017.61-8.528.98zm8.593-.98c2.225-.32 3.985-.81 5.158-1.56l-1.068-1.69c-.806.51-2.223.96-4.373 1.27zm5.164-1.56c1.341-.86 1.983-2.2 1.983-3.85h-2c0 1.06-.373 1.73-1.063 2.17zm1.983-3.85v-.23h-2v.23zm0-.23c0-3.15-.941-5.73-2.938-7.57l-1.358 1.46c1.493 1.39 2.296 3.37 2.296 6.11zm-2.938-7.57c-1.99-1.84-4.781-2.69-8.218-2.69v2c3.126 0 5.361.77 6.86 2.15zm-8.218-2.69c-3.6 0-6.581.78-8.839 2.46l1.194 1.61c1.805-1.35 4.319-2.07 7.645-2.07zm-8.844 2.47c-2.139 1.61-3.629 3.55-4.407 5.82l1.893.65c.629-1.84 1.847-3.47 3.718-4.88zm-3.32 5.16-13.203-1.88-.281 1.98 13.203 1.88zm-12.382-.61c1.001-3.51 2.642-6.4 4.909-8.72l-1.429-1.4c-2.524 2.58-4.321 5.78-5.403 9.57zm4.913-8.72c2.281-2.36 5.076-4.13 8.404-5.3l-.666-1.89c-3.6 1.27-6.664 3.2-9.175 5.79zm8.41-5.31c3.341-1.2 7.052-1.81 11.145-1.81v-2c-4.292 0-8.237.64-11.824 1.93zm11.145-1.81q4.217 0 8.403.99l.46-1.95a38.7 38.7 0 0 0-8.863-1.04zm8.403.99c2.755.65 5.263 1.72 7.531 3.22l1.101-1.67c-2.471-1.63-5.198-2.8-8.172-3.5zm7.537 3.22c2.22 1.44 4.009 3.41 5.367 5.93l1.761-.95q-2.26-4.2-6.039-6.66zm5.371 5.93c1.356 2.47 2.064 5.62 2.064 9.48h2c0-4.1-.75-7.6-2.311-10.44zm2.064 9.48V1375h2v-40.16zm1 39.16h-13.594v2h13.594zm-12.594 1v-8.24h-2v8.24zm-1-9.24h-.468v2h.468zm-1.357.54c-.8 1.55-1.936 3.02-3.427 4.41l1.365 1.47c1.635-1.53 2.921-3.18 3.839-4.96zm-3.426 4.41c-1.425 1.33-3.247 2.43-5.492 3.28l.707 1.87c2.442-.93 4.501-2.15 6.149-3.68zm-5.486 3.27c-2.182.81-4.78 1.23-7.817 1.23v2c3.214 0 6.058-.44 8.512-1.35zm-4.145-7.16c2.971 0 5.601-.59 7.857-1.8l-.947-1.76c-1.912 1.03-4.203 1.56-6.91 1.56zm7.865-1.8c2.225-1.23 3.963-2.86 5.181-4.9l-1.717-1.02c-1.021 1.71-2.486 3.1-4.428 4.16zm5.176-4.89a12.53 12.53 0 0 0 1.866-6.65h-2c0 2.03-.523 3.89-1.572 5.61zm1.866-6.65v-7.07h-2v7.07zm-1.636-7.85c-.281.24-.874.53-1.911.83l.562 1.92c1.098-.32 2.015-.7 2.62-1.2zm-1.917.83c-.999.3-2.133.57-3.406.8l.354 1.97a32 32 0 0 0 3.626-.85zm-3.406.8c-1.29.23-2.568.44-3.831.62l.283 1.98q1.932-.285 3.902-.63zm-3.831.62c-1.275.18-2.381.34-3.317.47l.275 1.98c.94-.13 2.048-.29 3.325-.47zm-3.314.47c-2.173.29-4.14.78-5.893 1.46l.728 1.86c1.58-.61 3.389-1.07 5.434-1.34zm-5.893 1.46c-1.797.7-3.264 1.71-4.354 3.03l1.545 1.27c.837-1.02 2.001-1.84 3.537-2.44zm-4.347 3.02c-1.146 1.37-1.68 3.09-1.68 5.1h2c0-1.64.43-2.88 1.211-3.81zm-1.68 5.1c0 2.88 1.074 5.18 3.279 6.72l1.145-1.64c-1.597-1.12-2.424-2.76-2.424-5.08zm3.279 6.72c2.109 1.47 4.746 2.17 7.838 2.17v-2c-2.793 0-5-.63-6.693-1.81zm119.166-42.66v1h1.144l-.152-1.13zm-14.609 0-.985.17.144.83h.841zm-2.305-6.37-.858.52h.003zm-4.179-4.76.615-.79zm-5.703-2.93-.306.95h.007l.007.01zm-18.399 2.27.541.84.005-.01zm-7.891 9.53.91.41h.001zm0 30.74-.91.41.003.01zm7.891 9.45-.539.84.007.01zm18.242 2.23.288.96.007-.01zm5.664-2.85-.594-.81-.006.01zm4.258-4.61-.841-.54-.005.01zm2.422-6.25.005-1-.833-.01-.155.82zm14.609.08.99.14.164-1.14h-1.148zm-3.554 10.7-.878-.48h-.003zm-7.071 8.83.655.75h.004zm-10.234 5.93.339.95.005-.01zm-31.836-2.77.508-.86zm-13.047-14.1-.888.46zm.039-44.22.886.46h.001zm13.086-14.1-.508-.86zm31.172-3.01.311-.95zm10.234 5.51-.628.78h.004zm7.383 8.83-.875.48.004.01zm3.828 10.87h-14.609v2h14.609zm-13.624.83c-.435-2.5-1.242-4.75-2.434-6.71l-1.711 1.03c1.048 1.73 1.777 3.74 2.175 6.02zm-2.431-6.71a18.1 18.1 0 0 0-4.423-5.04l-1.231 1.58c1.566 1.22 2.878 2.72 3.937 4.49zm-4.423-5.04c-1.768-1.38-3.781-2.41-6.027-3.1l-.583 1.92c2.025.61 3.814 1.54 5.379 2.76zm-6.013-3.09c-2.218-.71-4.601-1.07-7.141-1.07v2c2.355 0 4.529.33 6.53.97zm-7.141-1.07c-4.526 0-8.573 1.15-12.109 3.45l1.092 1.67c3.183-2.07 6.844-3.12 11.017-3.12zm-12.104 3.44c-3.545 2.29-6.292 5.62-8.26 9.96l1.821.83c1.834-4.05 4.347-7.06 7.521-9.1zm-8.259 9.96c-1.976 4.33-2.942 9.57-2.942 15.69h2c0-5.92.935-10.86 2.761-14.86zm-2.942 15.69c0 6.22.965 11.52 2.941 15.88l1.821-.82c-1.826-4.03-2.762-9.04-2.762-15.06zm2.944 15.89c1.994 4.31 4.741 7.62 8.259 9.87l1.079-1.68c-3.149-2.02-5.663-5.01-7.523-9.03zm8.266 9.88c3.533 2.22 7.562 3.32 12.056 3.32v-2c-4.153 0-7.806-1.01-10.992-3.02zm12.056 3.32c2.483 0 4.82-.33 7.006-.98l-.575-1.92c-1.981.59-4.123.9-6.431.9zm7.013-.99q3.321-1.02 5.969-3l-1.2-1.6c-1.569 1.17-3.353 2.07-5.359 2.69zm5.963-3c1.796-1.32 3.3-2.95 4.511-4.88l-1.693-1.06a15.7 15.7 0 0 1-4.006 4.33zm4.505-4.87c1.248-1.94 2.1-4.15 2.564-6.61l-1.966-.37c-.421 2.23-1.184 4.19-2.28 5.9zm1.576-5.79 14.609.08.011-2-14.61-.08zm13.625-1.07a30.5 30.5 0 0 1-3.443 10.37l1.755.96a32.4 32.4 0 0 0 3.667-11.04zm-3.446 10.37q-2.606 4.845-6.848 8.55l1.317 1.51c3.004-2.63 5.437-5.67 7.292-9.11zm-6.844 8.55c-2.818 2.44-6.123 4.36-9.924 5.76l.688 1.87c4.011-1.47 7.53-3.51 10.545-6.12zm-9.919 5.75c-3.783 1.37-8.002 2.05-12.669 2.05v2c4.865 0 9.317-.71 13.347-2.16zm-12.669 2.05c-6.87 0-12.968-1.58-18.32-4.74l-1.016 1.72c5.69 3.36 12.144 5.02 19.336 5.02zm-18.32-4.74c-5.346-3.15-9.569-7.71-12.666-13.7l-1.777.92c3.256 6.3 7.731 11.14 13.427 14.5zm-12.666-13.7c-3.088-5.97-4.654-13.18-4.654-21.65h-2c0 8.72 1.611 16.25 4.877 22.57zm-4.654-21.65c0-8.5 1.578-15.7 4.69-21.65l-1.772-.92c-3.294 6.29-4.918 13.83-4.918 22.57zm4.691-21.65c3.124-5.99 7.361-10.55 12.707-13.7l-1.016-1.72c-5.695 3.36-10.182 8.2-13.464 14.5zm12.707-13.7c5.354-3.16 11.425-4.74 18.242-4.74v-2c-7.141 0-13.569 1.66-19.258 5.02zm18.242-4.74c4.359 0 8.394.61 12.112 1.82l.621-1.9c-3.939-1.29-8.185-1.92-12.733-1.92zm12.112 1.82c3.717 1.22 7.02 2.99 9.916 5.34l1.257-1.56c-3.093-2.5-6.614-4.39-10.552-5.68zm9.92 5.34c2.888 2.31 5.266 5.15 7.132 8.53l1.751-.97q-2.982-5.4-7.634-9.12zm7.136 8.54c1.883 3.34 3.124 7.17 3.708 11.52l1.983-.27c-.614-4.56-1.926-8.65-3.949-12.23zm28.283 61.69-.514.86zm-10-10.82-.892.46h.002zm0-32.53-.891-.46-.002.01zm10-10.86.515.85zm30.469 0-.514.85zm9.961 10.86-.893.44.002.01zm0 32.53-.89-.45h-.002zm-9.961 10.82-.514-.85zm-7.187-10.07.632.77h.006zm4.765-7.11-.941-.34-.002.01zm0-19.89-.944.33.003.01zm-4.765-7.14.638-.77zm-16.094 0-.634-.78-.004.01zm-4.805 7.14-.942-.33h-.001zm0 19.89-.943.33.002.01zm4.805 7.11-.638.77h.01zm8.047 12.94c-5.709 0-10.603-1.25-14.72-3.72l-1.029 1.71c4.477 2.69 9.739 4.01 15.749 4.01zm-14.72-3.72c-4.13-2.48-7.336-5.95-9.624-10.42l-1.781.91c2.452 4.79 5.912 8.54 10.376 11.22zm-9.622-10.42c-2.261-4.47-3.408-9.72-3.408-15.8h-2c0 6.33 1.196 11.91 3.623 16.71zm-3.408-15.8c0-6.07 1.147-11.34 3.409-15.84l-1.787-.89c-2.426 4.82-3.622 10.41-3.622 16.73zm3.407-15.83c2.288-4.5 5.494-7.98 9.623-10.46l-1.029-1.71c-4.465 2.68-7.926 6.44-10.377 11.26zm9.623-10.46c4.117-2.47 9.011-3.72 14.72-3.72v-2c-6.01 0-11.272 1.32-15.749 4.01zm14.72-3.72c5.709 0 10.603 1.25 14.72 3.72l1.029-1.71c-4.477-2.69-9.74-4.01-15.749-4.01zm14.72 3.72c4.127 2.48 7.319 5.95 9.582 10.45l1.787-.89c-2.426-4.83-5.874-8.59-10.34-11.27zm9.584 10.46c2.286 4.5 3.446 9.76 3.446 15.83h2c0-6.32-1.21-11.91-3.663-16.74zm3.446 15.83c0 6.07-1.16 11.33-3.445 15.8l1.78.91c2.455-4.8 3.665-10.38 3.665-16.71zm-3.447 15.8c-2.262 4.48-5.454 7.94-9.583 10.42l1.029 1.71c4.464-2.68 7.913-6.43 10.339-11.22zm-9.583 10.42c-4.117 2.47-9.011 3.72-14.72 3.72v2c6.009 0 11.272-1.32 15.749-4.01zm-14.642-5.61c3.371 0 6.261-.93 8.601-2.84l-1.265-1.55c-1.93 1.58-4.353 2.39-7.336 2.39zm8.607-2.84c2.293-1.91 3.977-4.44 5.071-7.55l-1.887-.66c-.99 2.82-2.483 5.03-4.461 6.67zm5.068-7.54c1.113-3.1 1.661-6.52 1.661-10.26h-2c0 3.54-.52 6.73-1.543 9.58zm1.661-10.26c0-3.77-.548-7.21-1.661-10.3l-1.882.67c1.023 2.85 1.543 6.05 1.543 9.63zm-1.657-10.29c-1.093-3.15-2.777-5.69-5.072-7.59l-1.277 1.54c1.976 1.63 3.469 3.86 4.46 6.7zm-5.072-7.59c-2.341-1.94-5.233-2.89-8.607-2.89v2c2.98 0 5.4.83 7.33 2.43zm-8.607-2.89c-3.446 0-6.39.94-8.759 2.88l1.268 1.55c1.954-1.6 4.427-2.43 7.491-2.43zm-8.763 2.89c-2.293 1.9-3.99 4.44-5.109 7.58l1.884.67c1.016-2.85 2.523-5.07 4.501-6.71zm-5.11 7.58c-1.085 3.09-1.619 6.53-1.619 10.3h2c0-3.58.507-6.79 1.506-9.63zm-1.619 10.3c0 3.74.534 7.16 1.619 10.25l1.887-.66c-.999-2.85-1.506-6.04-1.506-9.59zm1.621 10.26c1.12 3.11 2.816 5.64 5.108 7.54l1.276-1.54c-1.979-1.64-3.486-3.86-4.502-6.68zm5.118 7.54c2.369 1.92 5.31 2.84 8.753 2.84v-2c-3.068 0-5.543-.81-7.497-2.39zm63.567 12v1h1v-1zm-14.14 0h-1v1h1zm0-60v-1h-1v1zm13.515 0h1v-1h-1zm0 10.2h-1v1h1zm.703 0v1h.671l.254-.62zm6.602-8.01-.545-.84h-.003zm22.109-.32-.499.87h.003zm7.188 7.7-.893.45.003.01zm2.539 12.23-1-.01v.01zm0 38.2v1h1v-1zm-14.141 0h-1v1h1zm-3.125-45.43-.74.67.004.01zm-15.156-1.76.49.87h.004zm-4.492 4.65-.881-.47-.004.01zm-2.602 7.38V1375h2v-35.16zm1 34.16h-14.14v2h14.14zm-13.14 1v-60h-2v60zm-1-59h13.515v-2h-13.515zm12.515-1v10.2h2V1315zm1 11.2h.703v-2h-.703zm1.628-.62c1.304-3.18 3.374-5.69 6.225-7.56l-1.096-1.67c-3.191 2.09-5.522 4.92-6.978 8.47zm6.222-7.55c2.85-1.86 6.413-2.81 10.744-2.81v-2c-4.627 0-8.591 1.02-11.834 3.13zm10.744-2.81c3.995 0 7.424.85 10.321 2.52l.999-1.73c-3.249-1.87-7.034-2.79-11.32-2.79zm10.324 2.52c2.919 1.67 5.182 4.09 6.791 7.28l1.786-.9c-1.776-3.52-4.306-6.24-7.584-8.11zm6.794 7.29c1.628 3.18 2.454 7.09 2.429 11.76l2 .01c.027-4.91-.84-9.15-2.649-12.69zm2.429 11.77v38.2h2v-38.2zm1 37.2h-14.141v2h14.141zm-13.141 1v-36.02h-2V1375zm0-36.02c0-4.18-1.089-7.59-3.389-10.09l-1.472 1.36c1.868 2.03 2.861 4.9 2.861 8.73zm-3.384-10.08c-2.283-2.52-5.426-3.73-9.295-3.73v2c3.422 0 5.982 1.06 7.814 3.07zm-9.295-3.73c-2.627 0-5.001.58-7.095 1.77l.987 1.74c1.759-1 3.786-1.51 6.108-1.51zm-7.092 1.77c-2.076 1.17-3.704 2.86-4.883 5.05l1.761.95c1.01-1.88 2.376-3.29 4.102-4.26zm-4.887 5.06c-1.16 2.2-1.717 4.83-1.717 7.84h2c0-2.77.512-5.06 1.487-6.91z" fill="#000" mask="url(#d)"/><mask id="e" maskUnits="userSpaceOnUse" x="306" y="954" width="531" height="341" fill="#000"><path fill="#fff" d="M306 954h531v341H306z"/><path d="M309.084 1287v-42.83l113.618-111.38c10.867-10.97 19.922-20.72 27.167-29.24 7.244-8.52 12.677-16.78 16.299-24.77s5.434-16.51 5.434-25.57c0-10.33-2.344-19.18-7.032-26.53-4.687-7.45-11.132-13.21-19.336-17.25-8.203-4.05-17.524-6.08-27.965-6.08-10.76 0-20.188 2.24-28.285 6.71-8.096 4.37-14.382 10.6-18.856 18.7-4.368 8.1-6.552 17.74-6.552 28.93h-56.41q0-31.17 14.222-54.18 14.222-23.008 39.152-35.633 25.089-12.624 57.528-12.624 32.92 0 57.848 12.305 24.93 12.303 38.672 33.722c9.269 14.27 13.903 30.57 13.903 48.89 0 12.26-2.344 24.29-7.031 36.12-4.688 11.83-12.944 24.93-24.77 39.31q-17.578 21.57-49.378 52.26l-56.41 57.36v2.24h142.543V1287zm400.461 6.23c-26.313 0-48.899-6.66-67.755-19.97-18.75-13.43-33.186-32.76-43.306-58.01-10.015-25.36-15.022-55.88-15.022-91.57q.16-53.535 15.181-91.08c10.121-25.15 24.557-44.322 43.307-57.532q28.284-19.815 67.595-19.815t67.596 19.815c18.857 13.21 33.292 32.382 43.306 57.532q15.182 37.71 15.182 91.08c0 35.8-5.061 66.37-15.182 91.73-10.014 25.25-24.449 44.53-43.306 57.85-18.75 13.31-41.282 19.97-67.596 19.97m0-50.02c20.455 0 36.595-10.06 48.42-30.2 11.932-20.24 17.898-50.02 17.898-89.33q0-38.985-8.15-65.52c-5.433-17.68-13.104-31-23.011-39.95-9.908-9.05-21.627-13.58-35.157-13.58q-30.522 0-48.259 30.36c-11.826 20.14-17.792 49.7-17.898 88.69-.107 26.1 2.503 48.05 7.83 65.84 5.433 17.79 13.104 31.22 23.011 40.27 9.908 8.95 21.68 13.42 35.316 13.42"/></mask><path d="M309.084 1287v-42.83l113.618-111.38c10.867-10.97 19.922-20.72 27.167-29.24 7.244-8.52 12.677-16.78 16.299-24.77s5.434-16.51 5.434-25.57c0-10.33-2.344-19.18-7.032-26.53-4.687-7.45-11.132-13.21-19.336-17.25-8.203-4.05-17.524-6.08-27.965-6.08-10.76 0-20.188 2.24-28.285 6.71-8.096 4.37-14.382 10.6-18.856 18.7-4.368 8.1-6.552 17.74-6.552 28.93h-56.41q0-31.17 14.222-54.18 14.222-23.008 39.152-35.633 25.089-12.624 57.528-12.624 32.92 0 57.848 12.305 24.93 12.303 38.672 33.722c9.269 14.27 13.903 30.57 13.903 48.89 0 12.26-2.344 24.29-7.031 36.12-4.688 11.83-12.944 24.93-24.77 39.31q-17.578 21.57-49.378 52.26l-56.41 57.36v2.24h142.543V1287zm400.461 6.23c-26.313 0-48.899-6.66-67.755-19.97-18.75-13.43-33.186-32.76-43.306-58.01-10.015-25.36-15.022-55.88-15.022-91.57q.16-53.535 15.181-91.08c10.121-25.15 24.557-44.322 43.307-57.532q28.284-19.815 67.595-19.815t67.596 19.815c18.857 13.21 33.292 32.382 43.306 57.532q15.182 37.71 15.182 91.08c0 35.8-5.061 66.37-15.182 91.73-10.014 25.25-24.449 44.53-43.306 57.85-18.75 13.31-41.282 19.97-67.596 19.97m0-50.02c20.455 0 36.595-10.06 48.42-30.2 11.932-20.24 17.898-50.02 17.898-89.33q0-38.985-8.15-65.52c-5.433-17.68-13.104-31-23.011-39.95-9.908-9.05-21.627-13.58-35.157-13.58q-30.522 0-48.259 30.36c-11.826 20.14-17.792 49.7-17.898 88.69-.107 26.1 2.503 48.05 7.83 65.84 5.433 17.79 13.104 31.22 23.011 40.27 9.908 8.95 21.68 13.42 35.316 13.42" fill="#000"/><path d="M309.084 1287h-1v1h1zm0-42.83-.7-.71-.3.29v.42zm113.618-111.38.7.72.006-.01h.005zm43.466-54.01.911.41zm-1.598-52.1-.846.54h.003zm-19.336-17.25-.442.89zm-56.25.63.475.88h.009zm-18.856 18.7-.875-.48-.005.01zm-6.552 28.93v1h1v-1zm-56.41 0h-1v1h1zm14.222-54.18.851.53zm39.152-35.633-.45-.893-.002.001zm115.376-.319.443-.897zm38.672 33.722-.842.54h.003zm6.872 85.01-.93-.37zm-24.77 39.31-.772-.63h-.003zm-49.378 52.26-.695-.72-.009.01h-.009zm-56.41 57.36-.713-.7-.287.3v.4zm0 2.24h-1v1h1zm142.543 0h1v-1h-1zm0 49.54v1h1v-1zm-223.361 0v-42.83h-2V1287zm-.3-42.11 113.618-111.38-1.4-1.43-113.618 111.38zm113.629-111.39c10.878-10.99 19.952-20.76 27.218-29.3l-1.524-1.3q-10.833 12.75-27.115 29.19zm27.218-29.3c7.288-8.58 12.779-16.91 16.448-25.01l-1.821-.82c-3.575 7.88-8.952 16.06-16.151 24.53zm16.448-25.01c3.683-8.12 5.523-16.79 5.523-25.98h-2c0 8.92-1.783 17.3-5.344 25.16zm5.523-25.98c0-10.49-2.381-19.52-7.189-27.06l-1.686 1.07c4.568 7.16 6.875 15.81 6.875 25.99zm-7.185-27.06c-4.79-7.62-11.378-13.49-19.74-17.62l-.885 1.79c8.044 3.97 14.346 9.6 18.932 16.9zm-19.74-17.62c-8.359-4.13-17.836-6.18-28.408-6.18v2c10.309 0 19.476 2 27.523 5.97zm-28.408-6.18c-10.901 0-20.501 2.27-28.768 6.84l.967 1.75c7.926-4.38 17.183-6.59 27.801-6.59zm-28.759 6.83c-8.267 4.46-14.691 10.83-19.257 19.1l1.75.97c4.382-7.93 10.529-14.03 18.456-18.31zm-19.262 19.11c-4.462 8.27-6.672 18.08-6.672 29.4h2c0-11.06 2.158-20.53 6.432-28.45zm-5.672 28.4h-56.41v2h56.41zm-55.41 1c0-20.62 4.703-38.49 14.073-53.65l-1.701-1.05c-9.593 15.52-14.372 33.76-14.372 54.7zm14.073-53.65c9.382-15.181 22.292-26.935 38.753-35.271l-.904-1.784c-16.778 8.496-29.969 20.499-39.55 36.005zm38.75-35.27c16.567-8.335 35.585-12.517 57.079-12.517v-2c-21.758 0-41.092 4.234-57.978 12.731zm57.079-12.517c21.821 0 40.947 4.077 57.406 12.201l.885-1.793c-16.78-8.283-36.219-12.408-58.291-12.408zm57.406 12.201c16.472 8.131 29.218 19.253 38.272 33.366l1.684-1.08c-9.269-14.447-22.305-25.803-39.071-34.079zm38.275 33.366c9.155 14.1 13.742 30.21 13.742 48.35h2c0-18.5-4.682-34.99-14.064-49.44zm13.742 48.35c0 12.13-2.318 24.04-6.961 35.75l1.859.74c4.732-11.94 7.102-24.1 7.102-36.49zm-6.961 35.75c-4.636 11.7-12.825 24.71-24.612 39.05l1.545 1.27c11.863-14.43 20.187-27.63 24.926-39.58zm-24.615 39.05c-11.683 14.34-28.111 31.73-49.298 52.17l1.389 1.44c21.215-20.47 37.705-37.92 49.46-52.35zm-49.316 52.18-56.41 57.37 1.426 1.41 56.41-57.37zm-56.697 58.07v2.24h2v-2.24zm1 3.24h142.543v-2H390.902zm141.543-1V1287h2v-49.54zm1 48.54H309.084v2h224.361zm108.345-12.74-.582.81h.005zm-43.306-58.01-.93.37h.001zm-15.022-91.57h-1zm15.181-91.08-.927-.38-.001.01zm43.307-57.532-.574-.819-.002.002zm135.191 0-.573.819zm43.306 57.532-.929.37h.002zm0 182.81-.928-.37h-.001zm-43.306 57.85-.577-.82h-.002zm-19.176-60.25-.861-.51-.001.01zm9.748-154.85.956-.29zm-23.011-39.95-.675.74.004.01zm-83.416 16.78.862.51h.001zm-17.898 88.69 1 .01zm7.83 65.84-.958.29h.002zm23.011 40.27-.674.74h.004zm35.316 62.44c-26.137 0-48.514-6.61-67.178-19.79l-1.154 1.63c19.048 13.46 41.842 20.16 68.332 20.16zm-67.173-19.79c-18.569-13.29-32.897-32.46-42.96-57.56l-1.857.74c10.179 25.39 24.722 44.9 43.653 58.45zm-42.958-57.56c-9.956-25.21-14.952-55.6-14.952-91.2h-2c0 35.78 5.019 66.43 15.092 91.94zm-14.952-91.19c.107-35.61 5.155-65.83 15.11-90.72l-1.857-.74c-10.074 25.18-15.146 55.67-15.253 91.45zm15.109-90.72c10.062-25 24.389-44.004 42.955-57.084l-1.152-1.635c-18.935 13.34-33.479 32.689-43.658 57.969zm42.952-57.083c18.666-13.076 40.991-19.634 67.022-19.634v-2c-26.383 0-49.122 6.652-68.169 19.996zm67.022-19.634c26.032 0 48.357 6.558 67.023 19.634l1.147-1.638c-19.047-13.344-41.786-19.996-68.17-19.996zm67.023 19.634c18.67 13.08 32.995 32.083 42.95 57.083l1.858-.74c-10.073-25.29-24.618-44.64-43.661-57.981zm42.952 57.083c10.06 24.99 15.109 55.22 15.109 90.71h2c0-35.67-5.073-66.17-15.254-91.46zm15.109 90.71c0 35.71-5.049 66.15-15.11 91.36l1.857.74c10.18-25.5 15.253-56.21 15.253-92.1zm-15.111 91.36c-9.956 25.1-24.282 44.21-42.954 57.4l1.154 1.63c19.042-13.44 33.586-32.9 43.659-58.29zm-42.956 57.4c-18.557 13.18-40.879 19.79-67.017 19.79v2c26.491 0 49.233-6.7 68.175-20.16zm-67.017-28.23c20.866 0 37.308-10.3 49.282-30.69l-1.724-1.01c-11.676 19.88-27.514 29.7-47.558 29.7zm49.282-30.69c12.064-20.47 18.036-50.45 18.036-89.84h-2c0 39.24-5.96 68.81-17.759 88.82zm18.036-89.84c0-26.05-2.722-48-8.194-65.81l-1.912.59c5.395 17.56 8.106 39.29 8.106 65.22zm-8.194-65.81c-5.467-17.79-13.213-31.29-23.297-40.4l-1.341 1.49c9.732 8.79 17.326 21.92 22.726 39.5zm-23.293-40.39c-10.093-9.23-22.053-13.85-35.831-13.85v2c13.283 0 24.76 4.44 34.482 13.32zm-35.831-13.85c-20.763 0-37.151 10.37-49.123 30.86l1.727 1.01c11.678-19.99 27.464-29.87 47.396-29.87zm-49.122 30.86c-11.956 20.36-17.928 50.13-18.035 89.19l2 .01c.106-38.92 6.066-68.28 17.76-88.19zm-18.035 89.19c-.107 26.16 2.508 48.21 7.872 66.13l1.916-.58c-5.29-17.66-7.895-39.5-7.788-65.54zm7.874 66.13c5.466 17.9 13.211 31.51 23.293 40.72l1.349-1.48c-9.734-8.89-17.329-22.14-22.73-39.82zm23.297 40.72c10.096 9.12 22.108 13.68 35.986 13.68v-2c-13.394 0-24.926-4.38-34.645-13.16z" fill="#000" mask="url(#e)"/><defs><filter id="a" x="355" y="0" width="362" height="368" filterUnits="userSpaceOnUse" color-interpolation-filters="sRGB"><feFlood flood-opacity="0" result="BackgroundImageFix"/><feColorMatrix in="SourceAlpha" values="0 0 0 0 0 0 0 0 0 0 0 0 0 0 0 0 0 0 127 0" result="hardAlpha"/><feOffset dy="4"/><feGaussianBlur stdDeviation="2"/><feComposite in2="hardAlpha" operator="out"/><feColorMatrix values="0 0 0 0 0 0 0 0 0 0 0 0 0 0 0 0 0 0 0.25 0"/><feBlend in2="BackgroundImageFix" result="effect1_dropShadow_0_1"/><feBlend in="SourceGraphic" in2="effect1_dropShadow_0_1" result="shape"/></filter><filter id="b" x="610" y="303" width="362" height="368" filterUnits="userSpaceOnUse" color-interpolation-filters="sRGB"><feFlood flood-opacity="0" result="BackgroundImageFix"/><feColorMatrix in="SourceAlpha" values="0 0 0 0 0 0 0 0 0 0 0 0 0 0 0 0 0 0 127 0" result="hardAlpha"/><feOffset dy="4"/><feGaussianBlur stdDeviation="2"/><feComposite in2="hardAlpha" operator="out"/><feColorMatrix values="0 0 0 0 0 0 0 0 0 0 0 0 0 0 0 0 0 0 0.25 0"/><feBlend in2="BackgroundImageFix" result="effect1_dropShadow_0_1"/><feBlend in="SourceGraphic" in2="effect1_dropShadow_0_1" result="shape"/></filter><filter id="c" x="414" y="650" width="175" height="178" filterUnits="userSpaceOnUse" color-interpolation-filters="sRGB"><feFlood flood-opacity="0" result="BackgroundImageFix"/><feColorMatrix in="SourceAlpha" values="0 0 0 0 0 0 0 0 0 0 0 0 0 0 0 0 0 0 127 0" result="hardAlpha"/><feOffset dy="4"/><feGaussianBlur stdDeviation="2"/><feComposite in2="hardAlpha" operator="out"/><feColorMatrix values="0 0 0 0 0 0 0 0 0 0 0 0 0 0 0 0 0 0 0.25 0"/><feBlend in2="BackgroundImageFix" result="effect1_dropShadow_0_1"/><feBlend in="SourceGraphic" in2="effect1_dropShadow_0_1" result="shape"/></filter></defs></svg>