<svg width="1063" height="128" viewBox="0 0 1063 128" fill="none" xmlns="http://www.w3.org/2000/svg"><path d="M93.113 38.56H66.04q-.288-3.36-1.537-6.096a13.8 13.8 0 0 0-3.36-4.705q-2.111-2.016-5.135-3.072-3.025-1.104-6.865-1.104-6.72 0-11.376 3.264-4.608 3.265-7.008 9.36-2.352 6.097-2.352 14.64 0 9.026 2.4 15.12 2.448 6.05 7.056 9.12 4.608 3.025 11.088 3.025 3.696 0 6.625-.912 2.928-.96 5.087-2.736a14.2 14.2 0 0 0 3.504-4.272q1.392-2.544 1.873-5.712l27.072.192q-.48 6.24-3.504 12.72-3.024 6.432-8.592 11.904-5.52 5.424-13.68 8.736t-18.96 3.312q-13.537 0-24.289-5.808-10.704-5.808-16.944-17.088-6.192-11.28-6.192-27.6 0-16.416 6.336-27.649 6.336-11.28 17.088-17.04 10.752-5.808 24-5.808 9.313 0 17.137 2.544t13.728 7.44q5.904 4.848 9.504 11.952t4.368 16.273m33.037 62.592q-7.056 0-12.48-2.304-5.376-2.352-8.448-7.104t-3.072-12.096q0-6.048 2.064-10.32 2.064-4.32 5.76-7.056t8.592-4.176q4.944-1.44 10.656-1.872 6.192-.48 9.936-1.152 3.792-.72 5.472-1.968 1.68-1.296 1.68-3.408v-.192q0-2.88-2.208-4.416t-5.664-1.537q-3.792 0-6.192 1.68-2.352 1.633-2.832 5.04h-24.384q.48-6.72 4.272-12.383 3.84-5.712 11.184-9.12 7.344-3.457 18.336-3.457 7.92 0 14.208 1.872 6.288 1.824 10.704 5.136 4.416 3.264 6.72 7.68 2.352 4.368 2.352 9.505V100h-24.768V89.632h-.576q-2.208 4.128-5.376 6.672-3.12 2.544-7.152 3.696-3.984 1.152-8.784 1.152m8.64-16.704q3.024 0 5.664-1.248 2.688-1.248 4.368-3.6t1.68-5.712v-6.144q-1.056.432-2.256.816-1.152.384-2.496.72-1.296.336-2.784.624a65 65 0 0 1-3.024.528q-3.072.48-5.04 1.584-1.92 1.056-2.88 2.64-.912 1.536-.912 3.456 0 3.072 2.16 4.704t5.52 1.632m50.677 43.2V26.271h26.304v12.865h.576q1.44-3.745 4.224-6.864 2.784-3.17 6.912-5.04 4.128-1.92 9.6-1.92 7.296 0 13.872 3.887 6.624 3.888 10.752 12.24 4.176 8.353 4.176 21.697 0 12.768-3.984 21.168-3.936 8.4-10.56 12.528-6.576 4.128-14.448 4.128-5.184 0-9.264-1.68-4.032-1.728-6.912-4.656a21.5 21.5 0 0 1-4.368-6.72h-.384v39.744zm25.92-64.512q0 5.376 1.392 9.312 1.44 3.888 4.032 6.048 2.64 2.112 6.288 2.112t6.192-2.064q2.592-2.112 3.936-6 1.392-3.936 1.392-9.408t-1.392-9.36q-1.344-3.936-3.936-6-2.544-2.112-6.192-2.112t-6.288 2.112q-2.592 2.064-4.032 6-1.392 3.888-1.392 9.36M272.982 100V26.271h25.728v14.017h.768q2.016-7.776 6.385-11.377 4.416-3.6 10.32-3.6 1.728 0 3.408.288 1.728.24 3.312.72v22.609q-1.968-.672-4.848-1.008t-4.944-.336q-3.888 0-7.008 1.776-3.073 1.728-4.849 4.896-1.776 3.12-1.776 7.344V100zm75.721 1.152q-7.056 0-12.48-2.304-5.376-2.352-8.448-7.104t-3.072-12.096q0-6.048 2.064-10.32 2.064-4.32 5.76-7.056t8.592-4.176q4.944-1.44 10.656-1.872 6.192-.48 9.936-1.152 3.792-.72 5.472-1.968 1.68-1.296 1.68-3.408v-.192q0-2.88-2.208-4.416t-5.664-1.537q-3.792 0-6.192 1.68-2.352 1.633-2.832 5.04h-24.384q.48-6.72 4.272-12.383 3.84-5.712 11.184-9.12 7.344-3.457 18.336-3.457 7.92 0 14.208 1.872 6.288 1.824 10.704 5.136 4.416 3.264 6.72 7.68 2.352 4.368 2.352 9.505V100h-24.768V89.632h-.576q-2.208 4.128-5.376 6.672-3.12 2.544-7.152 3.696-3.984 1.152-8.784 1.152m8.64-16.704q3.024 0 5.664-1.248 2.688-1.248 4.368-3.6t1.68-5.712v-6.144q-1.056.432-2.256.816-1.152.384-2.496.72-1.296.336-2.784.624a65 65 0 0 1-3.024.528q-3.072.48-5.04 1.584-1.92 1.056-2.88 2.64-.912 1.536-.912 3.456 0 3.072 2.16 4.704t5.52 1.632M499.412 38.56H472.34q-.288-3.36-1.536-6.096a13.8 13.8 0 0 0-3.36-4.705q-2.112-2.016-5.136-3.072-3.024-1.104-6.864-1.104-6.72 0-11.376 3.264-4.608 3.265-7.008 9.36-2.352 6.097-2.352 14.64 0 9.026 2.4 15.12 2.448 6.05 7.056 9.12 4.608 3.025 11.088 3.025 3.696 0 6.624-.912 2.928-.96 5.088-2.736a14.2 14.2 0 0 0 3.504-4.272q1.392-2.544 1.872-5.712l27.072.192q-.48 6.24-3.504 12.72-3.024 6.432-8.592 11.904-5.52 5.424-13.68 8.736t-18.96 3.312q-13.536 0-24.288-5.808-10.705-5.808-16.945-17.088-6.192-11.28-6.192-27.6 0-16.416 6.336-27.649 6.336-11.28 17.089-17.04 10.752-5.808 24-5.808 9.312 0 17.136 2.544t13.728 7.44q5.904 4.848 9.504 11.952t4.368 16.273m48.012 62.784q-12 0-20.544-4.752-8.544-4.8-13.104-13.344-4.56-8.592-4.56-19.92t4.56-19.873q4.56-8.59 13.104-13.344 8.544-4.8 20.544-4.8t20.545 4.8q8.544 4.752 13.104 13.345 4.56 8.544 4.56 19.872t-4.56 19.92q-4.56 8.544-13.104 13.344-8.544 4.752-20.545 4.752m.192-19.584q3.36 0 5.808-2.256 2.45-2.256 3.793-6.432 1.344-4.176 1.344-9.936 0-5.808-1.344-9.936-1.344-4.176-3.793-6.432t-5.808-2.256q-3.552 0-6.096 2.256t-3.888 6.432q-1.344 4.128-1.344 9.936 0 5.76 1.344 9.936t3.888 6.432 6.096 2.256m75.265-23.232V100h-26.496V26.271h25.152v14.017h.768q2.4-7.008 8.448-10.993 6.096-3.984 14.208-3.984 7.824 0 13.584 3.6 5.808 3.553 8.976 9.792 3.216 6.24 3.168 14.257V100h-26.496V58.528q.048-5.472-2.784-8.592-2.784-3.12-7.776-3.12-3.264 0-5.712 1.44-2.4 1.392-3.696 4.032-1.296 2.592-1.344 6.24M710.506 100V80.8l36.672-30.336q3.648-3.024 6.24-5.664 2.64-2.689 4.032-5.52 1.44-2.834 1.44-6.288 0-3.794-1.632-6.48-1.584-2.69-4.416-4.129-2.832-1.488-6.528-1.488t-6.528 1.488q-2.784 1.488-4.32 4.368t-1.536 7.009h-25.344q0-10.37 4.656-17.857 4.656-7.488 13.152-11.52t19.92-4.032q11.808 0 20.448 3.792 8.688 3.744 13.392 10.56 4.752 6.816 4.752 15.984 0 5.666-2.352 11.28-2.352 5.57-8.448 12.337-6.096 6.768-17.328 16.128l-9.216 7.68v.576h38.4V100zm130.201 2.688q-13.392-.048-23.136-6.192t-15.024-17.712-5.232-27.744q.048-16.224 5.28-27.553 5.28-11.328 14.976-17.232Q827.315.351 840.707.351t23.136 5.952q9.744 5.904 15.024 17.232t5.232 27.505q0 16.272-5.28 27.84t-15.024 17.712q-9.696 6.096-23.088 6.096m0-21.696q6.912 0 11.328-7.2 4.464-7.248 4.416-22.752 0-10.128-2.016-16.56-2.016-6.433-5.568-9.505-3.552-3.12-8.16-3.12-6.912 0-11.28 7.008t-4.464 22.177q-.048 10.32 1.968 16.992 2.016 6.624 5.568 9.792 3.6 3.168 8.208 3.168M896.627 100V80.8L933.3 50.464q3.648-3.024 6.24-5.664 2.64-2.689 4.032-5.52 1.44-2.834 1.44-6.288 0-3.794-1.632-6.48-1.584-2.69-4.416-4.129-2.832-1.488-6.528-1.488t-6.528 1.488q-2.784 1.488-4.321 4.368t-1.536 7.009h-25.344q0-10.37 4.656-17.857 4.656-7.488 13.152-11.52T932.436.351q11.808 0 20.448 3.792 8.688 3.744 13.392 10.56 4.752 6.816 4.752 15.984 0 5.666-2.352 11.28-2.352 5.57-8.448 12.337-6.096 6.768-17.328 16.128l-9.216 7.68v.576h38.4V100zm126.743 1.344c-7.55 0-14.25-1.328-20.11-3.984q-8.736-4.032-13.776-11.088-4.992-7.056-5.088-16.224h25.924q.135 5.088 3.93 8.112 3.84 3.024 9.12 3.024 4.08 0 7.2-1.728c2.08-1.184 3.71-2.848 4.9-4.992 1.18-2.144 1.76-4.64 1.73-7.488.03-2.88-.55-5.376-1.73-7.488-1.19-2.144-2.82-3.792-4.9-4.944q-3.12-1.776-7.2-1.776c-2.81 0-5.42.688-7.82 2.064-2.37 1.344-4.11 3.216-5.23 5.616l-23.428-4.608 3.84-54.145h66.048v21.312h-44.16l-1.92 21.697h.58c1.53-2.977 4.19-5.44 7.96-7.392 3.78-1.984 8.16-2.976 13.16-2.976 5.85 0 11.07 1.36 15.64 4.08 4.61 2.72 8.24 6.48 10.9 11.28 2.69 4.768 4.02 10.272 3.98 16.512.04 6.848-1.6 12.928-4.89 18.24-3.27 5.28-7.86 9.424-13.78 12.432q-8.88 4.464-20.88 4.464" fill="#000"/></svg>