<svg width="920" height="1398" viewBox="0 0 920 1398" fill="none" xmlns="http://www.w3.org/2000/svg"><g filter="url(#a)"><ellipse cx="484" cy="180" rx="177" ry="180" fill="#000"/></g><g filter="url(#b)"><ellipse cx="739" cy="483" rx="177" ry="180" fill="#000"/></g><g filter="url(#c)"><ellipse cx="498.5" cy="709" rx="83.5" ry="85" fill="#000"/></g><ellipse cx="228.5" cy="526.5" rx="228.5" ry="232.5" fill="#000"/><path stroke="#000" stroke-width="5" d="m295.398 723.294 73 248M476.165 773.25l-108 187m347.312-366.914-53 391M506.276 327.501l156.154 643.91"/><path d="M326.367 1321.99h-14.609c-.417-2.39-1.185-4.52-2.305-6.37-1.12-1.87-2.513-3.46-4.18-4.76s-3.567-2.28-5.703-2.93q-3.164-1.02-6.836-1.02c-4.349 0-8.203 1.1-11.562 3.29-3.359 2.16-5.99 5.33-7.891 9.53q-2.851 6.24-2.851 15.27c0 6.12.95 11.28 2.851 15.47q2.891 6.255 7.891 9.45c3.359 2.11 7.2 3.17 11.523 3.17 2.396 0 4.636-.32 6.719-.94q3.163-.975 5.664-2.85a16.8 16.8 0 0 0 4.258-4.61c1.172-1.83 1.979-3.91 2.422-6.25l14.609.08a31.4 31.4 0 0 1-3.555 10.7c-1.796 3.33-4.153 6.27-7.07 8.83-2.916 2.52-6.328 4.5-10.234 5.93-3.906 1.41-8.242 2.11-13.008 2.11-7.031 0-13.307-1.62-18.828-4.88q-8.282-4.875-13.047-14.1t-4.766-22.11q0-12.93 4.805-22.11 4.804-9.225 13.086-14.1c5.521-3.26 11.771-4.88 18.75-4.88 4.453 0 8.594.62 12.422 1.87s7.239 3.09 10.234 5.51c2.995 2.39 5.456 5.34 7.383 8.83 1.953 3.46 3.229 7.42 3.828 11.87m29.912 54.22c-3.802 0-7.226-.68-10.273-2.03q-4.531-2.07-7.188-6.09c-1.744-2.69-2.617-5.99-2.617-9.93 0-3.38.625-6.18 1.875-8.39a14.5 14.5 0 0 1 5.117-5.32q3.243-1.995 7.305-3 4.101-1.065 8.477-1.53c3.515-.36 6.367-.69 8.554-.97q3.281-.48 4.766-1.41c1.016-.65 1.523-1.65 1.523-3.01v-.23c0-2.95-.872-5.22-2.617-6.84-1.745-1.61-4.258-2.42-7.539-2.42-3.463 0-6.211.75-8.242 2.26-2.005 1.52-3.359 3.3-4.063 5.36l-13.203-1.88c1.042-3.64 2.761-6.69 5.157-9.14q3.593-3.705 8.789-5.55c3.463-1.25 7.291-1.87 11.484-1.87 2.891 0 5.768.34 8.633 1.01q4.297 1.02 7.851 3.36c2.37 1.54 4.271 3.64 5.703 6.29q2.188 3.99 2.188 9.96V1375h-13.594v-8.24h-.469c-.859 1.66-2.07 3.23-3.632 4.69-1.537 1.43-3.477 2.59-5.821 3.47q-3.476 1.29-8.164 1.29m3.672-10.39q4.259 0 7.383-1.68 3.125-1.725 4.805-4.53a11.55 11.55 0 0 0 1.718-6.13v-7.07c-.442.36-1.197.7-2.265 1.01-1.042.31-2.214.59-3.516.82-1.302.24-2.591.44-3.867.63-1.276.18-2.383.34-3.32.47-2.11.28-3.998.75-5.664 1.4-1.667.65-2.982 1.56-3.946 2.74-.963 1.14-1.445 2.63-1.445 4.45 0 2.6.951 4.57 2.852 5.9s4.322 1.99 7.265 1.99m42.227 31.68V1315h13.906v9.92h.82q1.094-2.19 3.086-4.65c1.328-1.66 3.125-3.08 5.391-4.25q3.398-1.8 8.672-1.8c4.635 0 8.815 1.18 12.539 3.55 3.75 2.35 6.719 5.82 8.906 10.43 2.214 4.59 3.32 10.21 3.32 16.88 0 6.59-1.08 12.19-3.242 16.79-2.161 4.61-5.104 8.13-8.828 10.55q-5.586 3.63-12.656 3.63-5.156 0-8.555-1.71-3.398-1.725-5.469-4.14c-1.354-1.65-2.408-3.19-3.164-4.65h-.586v31.95zm13.867-52.5q0 5.82 1.641 10.2c1.119 2.91 2.721 5.19 4.804 6.83 2.11 1.62 4.662 2.42 7.656 2.42 3.125 0 5.743-.83 7.852-2.5 2.109-1.69 3.698-3.99 4.766-6.91 1.093-2.94 1.64-6.29 1.64-10.04 0-3.72-.534-7.03-1.601-9.92-1.068-2.89-2.657-5.16-4.766-6.8q-3.163-2.46-7.891-2.46c-3.02 0-5.585.79-7.695 2.38-2.109 1.59-3.711 3.82-4.805 6.68-1.067 2.87-1.601 6.24-1.601 10.12m54.883 30v-60h13.711v10h.625q1.64-5.19 5.625-8.01 4.023-2.85 9.179-2.85 1.173 0 2.618.12 1.484.075 2.46.27v13.01c-.598-.21-1.549-.39-2.851-.55a27 27 0 0 0-3.711-.27q-3.867 0-6.953 1.68a12.3 12.3 0 0 0-4.805 4.57c-1.172 1.95-1.758 4.2-1.758 6.76V1375zm59.804 1.21c-3.802 0-7.226-.68-10.273-2.03q-4.531-2.07-7.188-6.09c-1.744-2.69-2.617-5.99-2.617-9.93 0-3.38.625-6.18 1.875-8.39a14.5 14.5 0 0 1 5.117-5.32q3.243-1.995 7.305-3a58 58 0 0 1 8.477-1.53c3.515-.36 6.367-.69 8.554-.97q3.281-.48 4.766-1.41c1.016-.65 1.523-1.65 1.523-3.01v-.23c0-2.95-.872-5.22-2.617-6.84-1.744-1.61-4.258-2.42-7.539-2.42-3.463 0-6.211.75-8.242 2.26-2.005 1.52-3.359 3.3-4.062 5.36l-13.204-1.88c1.042-3.64 2.761-6.69 5.157-9.14q3.594-3.705 8.789-5.55c3.463-1.25 7.291-1.87 11.484-1.87 2.891 0 5.768.34 8.633 1.01q4.298 1.02 7.851 3.36c2.37 1.54 4.271 3.64 5.704 6.29q2.187 3.99 2.187 9.96V1375h-13.594v-8.24h-.468c-.86 1.66-2.071 3.23-3.633 4.69-1.537 1.43-3.477 2.59-5.821 3.47q-3.476 1.29-8.164 1.29m3.672-10.39q4.259 0 7.383-1.68 3.125-1.725 4.805-4.53a11.55 11.55 0 0 0 1.719-6.13v-7.07c-.443.36-1.198.7-2.266 1.01-1.042.31-2.214.59-3.516.82-1.302.24-2.591.44-3.867.63-1.276.18-2.383.34-3.32.47-2.11.28-3.998.75-5.664 1.4-1.667.65-2.982 1.56-3.946 2.74-.963 1.14-1.445 2.63-1.445 4.45 0 2.6.951 4.57 2.852 5.9s4.323 1.99 7.265 1.99m111.328-43.83h-14.609c-.417-2.39-1.185-4.52-2.305-6.37a17.1 17.1 0 0 0-4.179-4.76c-1.667-1.3-3.568-2.28-5.703-2.93q-3.165-1.02-6.836-1.02c-4.349 0-8.204 1.1-11.563 3.29-3.359 2.16-5.989 5.33-7.891 9.53q-2.851 6.24-2.851 15.27c0 6.12.95 11.28 2.851 15.47q2.892 6.255 7.891 9.45c3.359 2.11 7.201 3.17 11.524 3.17 2.395 0 4.635-.32 6.718-.94q3.165-.975 5.664-2.85a16.8 16.8 0 0 0 4.258-4.61c1.172-1.83 1.979-3.91 2.422-6.25l14.609.08a31.4 31.4 0 0 1-3.554 10.7c-1.797 3.33-4.154 6.27-7.071 8.83-2.916 2.52-6.328 4.5-10.234 5.93-3.906 1.41-8.242 2.11-13.008 2.11-7.031 0-13.307-1.62-18.828-4.88q-8.281-4.875-13.047-14.1-4.765-9.225-4.765-22.11 0-12.93 4.804-22.11 4.804-9.225 13.086-14.1c5.521-3.26 11.771-4.88 18.75-4.88 4.453 0 8.594.62 12.422 1.87s7.24 3.09 10.234 5.51c2.995 2.39 5.456 5.34 7.383 8.83 1.953 3.46 3.229 7.42 3.828 11.87m38.819 54.18q-8.79 0-15.235-3.87c-4.296-2.57-7.63-6.18-10-10.82-2.343-4.63-3.515-10.05-3.515-16.25 0-6.19 1.172-11.62 3.515-16.28q3.555-7.005 10-10.86 6.445-3.87 15.235-3.87t15.234 3.87q6.445 3.855 9.961 10.86c2.37 4.66 3.555 10.09 3.555 16.28 0 6.2-1.185 11.62-3.555 16.25-2.344 4.64-5.664 8.25-9.961 10.82q-6.445 3.87-15.234 3.87m.078-11.33q4.765 0 7.969-2.61 3.203-2.655 4.765-7.11c1.068-2.97 1.602-6.28 1.602-9.92 0-3.68-.534-7-1.602-9.97q-1.562-4.485-4.765-7.14c-2.136-1.77-4.792-2.66-7.969-2.66-3.255 0-5.964.89-8.125 2.66q-3.203 2.655-4.805 7.14c-1.041 2.97-1.562 6.29-1.562 9.97 0 3.64.521 6.95 1.562 9.92q1.601 4.455 4.805 7.11 3.242 2.61 8.125 2.61m54.814-25V1375h-14.14v-60h13.515v10.2h.703q2.071-5.04 6.602-8.01 4.57-2.97 11.289-2.97c4.141 0 7.748.88 10.82 2.65 3.099 1.78 5.495 4.34 7.188 7.7 1.719 3.36 2.565 7.44 2.539 12.23v38.2h-14.141v-36.02c0-4.01-1.041-7.14-3.125-9.41-2.057-2.27-4.908-3.4-8.554-3.4-2.474 0-4.675.55-6.602 1.64q-2.851 1.605-4.492 4.65-1.602 3.045-1.602 7.38M257.084 1287v-42.83l113.618-111.38c10.867-10.97 19.922-20.72 27.167-29.24 7.244-8.52 12.677-16.78 16.299-24.77s5.434-16.51 5.434-25.57c0-10.33-2.344-19.18-7.032-26.53-4.687-7.45-11.132-13.21-19.336-17.25-8.203-4.05-17.524-6.08-27.965-6.08-10.76 0-20.188 2.24-28.285 6.71-8.096 4.37-14.382 10.6-18.856 18.7-4.368 8.1-6.552 17.74-6.552 28.93h-56.41q0-31.17 14.222-54.18 14.223-23.008 39.152-35.633 25.089-12.624 57.528-12.624 32.92 0 57.848 12.305 24.93 12.303 38.672 33.722c9.269 14.27 13.903 30.57 13.903 48.89 0 12.26-2.344 24.29-7.031 36.12-4.688 11.83-12.944 24.93-24.77 39.31q-17.578 21.57-49.378 52.26l-56.41 57.36v2.24h142.543V1287zm400.461 6.23c-26.313 0-48.899-6.66-67.755-19.97-18.75-13.43-33.186-32.76-43.306-58.01-10.015-25.36-15.022-55.88-15.022-91.57q.16-53.535 15.181-91.08c10.121-25.15 24.557-44.322 43.307-57.532q28.284-19.815 67.595-19.815t67.596 19.815c18.857 13.21 33.292 32.382 43.306 57.532q15.182 37.71 15.182 91.08c0 35.8-5.061 66.37-15.182 91.73-10.014 25.25-24.449 44.53-43.306 57.85-18.75 13.31-41.282 19.97-67.596 19.97m0-50.02c20.455 0 36.595-10.06 48.42-30.2 11.932-20.24 17.898-50.02 17.898-89.33q0-38.985-8.15-65.52c-5.433-17.68-13.104-31-23.011-39.95-9.908-9.05-21.627-13.58-35.157-13.58q-30.522 0-48.259 30.36c-11.826 20.14-17.792 49.7-17.898 88.69-.107 26.1 2.503 48.05 7.83 65.84 5.433 17.79 13.104 31.22 23.011 40.27 9.908 8.95 21.68 13.42 35.316 13.42" fill="#000"/><defs><filter id="a" x="303" y="0" width="362" height="368" filterUnits="userSpaceOnUse" color-interpolation-filters="sRGB"><feFlood flood-opacity="0" result="BackgroundImageFix"/><feColorMatrix in="SourceAlpha" values="0 0 0 0 0 0 0 0 0 0 0 0 0 0 0 0 0 0 127 0" result="hardAlpha"/><feOffset dy="4"/><feGaussianBlur stdDeviation="2"/><feComposite in2="hardAlpha" operator="out"/><feColorMatrix values="0 0 0 0 0 0 0 0 0 0 0 0 0 0 0 0 0 0 0.25 0"/><feBlend in2="BackgroundImageFix" result="effect1_dropShadow_0_1"/><feBlend in="SourceGraphic" in2="effect1_dropShadow_0_1" result="shape"/></filter><filter id="b" x="558" y="303" width="362" height="368" filterUnits="userSpaceOnUse" color-interpolation-filters="sRGB"><feFlood flood-opacity="0" result="BackgroundImageFix"/><feColorMatrix in="SourceAlpha" values="0 0 0 0 0 0 0 0 0 0 0 0 0 0 0 0 0 0 127 0" result="hardAlpha"/><feOffset dy="4"/><feGaussianBlur stdDeviation="2"/><feComposite in2="hardAlpha" operator="out"/><feColorMatrix values="0 0 0 0 0 0 0 0 0 0 0 0 0 0 0 0 0 0 0.25 0"/><feBlend in2="BackgroundImageFix" result="effect1_dropShadow_0_1"/><feBlend in="SourceGraphic" in2="effect1_dropShadow_0_1" result="shape"/></filter><filter id="c" x="411" y="624" width="175" height="178" filterUnits="userSpaceOnUse" color-interpolation-filters="sRGB"><feFlood flood-opacity="0" result="BackgroundImageFix"/><feColorMatrix in="SourceAlpha" values="0 0 0 0 0 0 0 0 0 0 0 0 0 0 0 0 0 0 127 0" result="hardAlpha"/><feOffset dy="4"/><feGaussianBlur stdDeviation="2"/><feComposite in2="hardAlpha" operator="out"/><feColorMatrix values="0 0 0 0 0 0 0 0 0 0 0 0 0 0 0 0 0 0 0.25 0"/><feBlend in2="BackgroundImageFix" result="effect1_dropShadow_0_1"/><feBlend in="SourceGraphic" in2="effect1_dropShadow_0_1" result="shape"/></filter></defs></svg>