<svg width="706" height="402" viewBox="0 0 706 402" fill="none" xmlns="http://www.w3.org/2000/svg"><g clip-path="url(#a)"><mask id="b" style="mask-type:alpha" maskUnits="userSpaceOnUse" x="0" y="0" width="1115" height="217"><path d="M98.778 54.772H72.521q-.524-4.044-2.153-7.3-1.627-3.255-4.306-5.566-2.677-2.31-6.354-3.518-3.624-1.26-8.035-1.26-7.824 0-13.496 3.833-5.618 3.834-8.664 11.08-2.994 7.248-2.994 17.54 0 10.712 3.046 17.96 3.099 7.194 8.665 10.87 5.62 3.623 13.286 3.623 4.305 0 7.825-1.103 3.57-1.102 6.249-3.203a17.7 17.7 0 0 0 4.463-5.199q1.785-3.097 2.468-6.984l26.257.157q-.683 7.143-4.148 14.074-3.414 6.932-9.4 12.656-5.987 5.672-14.6 9.032-8.558 3.361-19.64 3.361-14.598 0-26.151-6.407-11.5-6.459-18.17-18.8Q0 87.278 0 69.582q0-17.75 6.774-30.09 6.774-12.342 18.328-18.748 11.552-6.407 25.889-6.407 9.767 0 18.064 2.731 8.298 2.679 14.6 7.877 6.3 5.147 10.24 12.656 3.938 7.509 4.883 17.172m34.656 69.947q-7.72 0-13.706-2.573-5.935-2.626-9.4-7.877-3.414-5.304-3.414-13.286 0-6.722 2.363-11.343t6.512-7.51q4.15-2.888 9.557-4.358 5.409-1.523 11.553-2.048 6.88-.63 11.081-1.313 4.201-.735 6.091-2.048 1.944-1.365 1.943-3.834v-.262q0-4.044-2.783-6.25-2.782-2.205-7.509-2.205-5.094 0-8.192 2.206-3.099 2.205-3.939 6.091l-23.684-.84q1.051-7.352 5.409-13.129 4.411-5.829 12.079-9.137 7.719-3.36 18.537-3.36 7.72 0 14.231 1.837 6.512 1.784 11.343 5.252 4.831 3.413 7.457 8.402 2.678 4.989 2.678 11.395v54.825h-24.156v-11.238h-.63q-2.154 4.095-5.514 6.932-3.309 2.835-7.825 4.253-4.463 1.418-10.082 1.418m7.929-16.804q4.15 0 7.457-1.681 3.361-1.68 5.356-4.621 1.996-2.993 1.996-6.932v-7.667q-1.103.578-2.678 1.05a46 46 0 0 1-3.361.893q-1.838.42-3.781.735-1.942.315-3.729.578-3.623.578-6.196 1.785-2.521 1.209-3.886 3.151-1.313 1.89-1.313 4.516 0 3.992 2.836 6.092 2.888 2.1 7.299 2.101m53.022 45.687V42.693h25.417v13.812h.787q1.577-3.676 4.464-7.09 2.941-3.412 7.457-5.566 4.569-2.206 10.923-2.206 8.401 0 15.702 4.411 7.351 4.412 11.868 13.601 4.516 9.19 4.516 23.421 0 13.707-4.359 22.949-4.306 9.243-11.658 13.864-7.299 4.621-16.227 4.621-6.091 0-10.555-1.996t-7.509-5.251q-2.993-3.256-4.622-6.984h-.525v43.324zm25.154-70.58q0 6.513 1.733 11.344 1.785 4.83 5.094 7.51 3.361 2.625 8.035 2.625 4.726 0 8.034-2.625 3.309-2.68 4.989-7.51 1.733-4.831 1.733-11.343t-1.733-11.29q-1.68-4.779-4.989-7.405-3.256-2.626-8.034-2.626-4.726 0-8.035 2.573t-5.094 7.353q-1.733 4.778-1.733 11.395m66.479 40.331V42.694h24.944v14.703h.84q2.206-7.98 7.194-11.868 4.99-3.938 11.606-3.938 1.785 0 3.676.262 1.89.21 3.518.683v22.318q-1.837-.63-4.831-.997-2.94-.368-5.251-.368-4.569 0-8.245 2.048-3.624 1.995-5.724 5.619-2.048 3.57-2.048 8.402v43.797zm78.99 1.365q-7.72 0-13.706-2.573-5.934-2.626-9.4-7.877-3.414-5.304-3.414-13.286 0-6.722 2.364-11.343t6.511-7.51q4.149-2.888 9.558-4.358 5.409-1.523 11.553-2.048 6.879-.63 11.08-1.313 4.201-.735 6.092-2.048 1.943-1.365 1.943-3.834v-.262q0-4.044-2.783-6.25-2.784-2.205-7.51-2.205-5.094 0-8.192 2.206t-3.939 6.091l-23.683-.84q1.05-7.352 5.409-13.129 4.41-5.829 12.078-9.137 7.719-3.36 18.537-3.36 7.72 0 14.231 1.837 6.512 1.784 11.343 5.252 4.832 3.413 7.457 8.402 2.679 4.989 2.678 11.395v54.825h-24.156v-11.238h-.63q-2.153 4.095-5.514 6.932-3.308 2.835-7.824 4.253-4.464 1.418-10.083 1.418m7.929-16.804q4.15 0 7.457-1.681 3.361-1.68 5.357-4.621 1.995-2.993 1.995-6.932v-7.667q-1.103.578-2.678 1.05a46 46 0 0 1-3.361.893q-1.837.42-3.781.735-1.943.315-3.728.578-3.624.578-6.197 1.785-2.52 1.209-3.886 3.151-1.313 1.89-1.313 4.516 0 3.992 2.836 6.092 2.889 2.1 7.299 2.101m150.645-53.144h-26.256q-.526-4.044-2.154-7.3-1.627-3.255-4.306-5.566-2.678-2.31-6.354-3.518-3.623-1.26-8.034-1.26-7.825 0-13.496 3.833-5.62 3.834-8.665 11.08-2.993 7.248-2.993 17.54 0 10.712 3.045 17.96 3.099 7.194 8.665 10.87 5.62 3.623 13.286 3.623 4.306 0 7.825-1.103 3.57-1.102 6.249-3.203a17.7 17.7 0 0 0 4.463-5.199q1.786-3.097 2.469-6.984l26.256.157q-.683 7.143-4.148 14.074-3.414 6.932-9.4 12.656-5.986 5.672-14.599 9.032-8.56 3.361-19.64 3.361-14.6 0-26.152-6.407-11.5-6.459-18.17-18.8-6.669-12.341-6.669-30.037 0-17.75 6.774-30.09 6.775-12.342 18.328-18.748t25.889-6.407q9.767 0 18.065 2.731 8.296 2.679 14.598 7.877 6.303 5.147 10.241 12.656t4.883 17.172m49.57 70.106q-12.709 0-21.846-5.199-9.085-5.252-14.021-14.599-4.884-9.4-4.884-21.793 0-12.446 4.884-21.794 4.936-9.4 14.021-14.599 9.137-5.25 21.846-5.25t21.793 5.25q9.137 5.2 14.021 14.6 4.936 9.345 4.936 21.793 0 12.393-4.936 21.793-4.884 9.347-14.021 14.599-9.085 5.199-21.793 5.199m.157-19.378q4.621 0 7.825-2.836t4.884-7.877q1.732-5.04 1.732-11.658 0-6.722-1.732-11.763-1.681-5.042-4.884-7.877t-7.825-2.836q-4.779 0-8.087 2.836-3.255 2.835-4.989 7.877-1.68 5.04-1.68 11.763 0 6.616 1.68 11.658 1.734 5.041 4.989 7.877 3.308 2.836 8.087 2.836m76.47-28.147v46.002h-25.68V42.693h24.419v14.81h.893q2.678-7.406 9.137-11.606 6.459-4.254 15.387-4.254 8.507 0 14.756 3.834 6.302 3.78 9.768 10.607 3.518 6.775 3.466 15.86v51.411h-25.68v-46.37q.054-6.721-3.413-10.503-3.413-3.78-9.505-3.78-4.043 0-7.142 1.785-3.045 1.733-4.726 4.988-1.627 3.257-1.68 7.878" fill="#000"/></mask><g mask="url(#b)"><path d="M1272.76-605.645H.016v1343.18H1272.76z" fill="#000"/></g><mask id="c" style="mask-type:luminance" maskUnits="userSpaceOnUse" x="0" y="186" width="400" height="216"><path d="M400 186H0v216h400z" fill="#fff"/></mask><g mask="url(#c)"><mask id="d" style="mask-type:alpha" maskUnits="userSpaceOnUse" x="-715" y="186" width="1115" height="217"><path d="M223.867 235.208c8.159 26.759-3.907 64.778-30.592 72.96-26.686 8.181-57.892-16.572-66.051-43.33a50.8 50.8 0 0 1 3.706-38.602 50.56 50.56 0 0 1 29.841-24.667 50.4 50.4 0 0 1 38.496 3.716 50.64 50.64 0 0 1 24.6 29.923" fill="#D9D9D9"/><path d="m199.165 305.771 14.516 17.334-28.993 8.889 2.44-22.518" fill="#D9D9D9"/><path fill-rule="evenodd" clip-rule="evenodd" d="M202.951 321.472a2.273 2.273 0 0 1 .257 3.197c-8.752 10.32-6.14 27.736 10.879 33.382 3.921 1.301 8.815 3.122 13.431 5.482 4.578 2.34 9.082 5.309 12.039 8.987 3.038 3.778 4.507 8.421 2.614 13.684-1.815 5.043-6.591 10.264-14.947 15.777a2.257 2.257 0 0 1-3.132-.648 2.27 2.27 0 0 1 .646-3.141c8.067-5.322 11.86-9.863 13.178-13.527 1.24-3.445.406-6.456-1.88-9.298-2.366-2.943-6.204-5.561-10.572-7.794-4.33-2.213-8.985-3.951-12.798-5.216-20.207-6.704-23.637-27.97-12.903-40.626a2.26 2.26 0 0 1 3.188-.259" fill="#D9D9D9"/><path d="M28.469 309.355V290.66l39.228-34.344q4.41-3.991 7.509-7.3 3.098-3.36 4.726-6.721 1.628-3.414 1.628-7.405 0-4.464-1.943-7.614-1.942-3.203-5.356-4.937-3.414-1.732-7.825-1.732-4.464 0-7.824 1.837-3.362 1.787-5.252 5.199-1.838 3.414-1.838 8.298H26.893q0-10.976 4.937-18.958 4.936-7.982 13.863-12.288 8.98-4.359 20.848-4.359 12.236 0 21.268 4.096t13.969 11.448q4.989 7.3 4.989 16.962 0 6.144-2.468 12.183-2.469 6.04-8.875 13.339-6.354 7.299-18.065 17.487l-12.866 11.868v.683h43.586v20.953zm258.358 1.365q-7.72 0-13.706-2.573-5.934-2.626-9.4-7.877-3.413-5.304-3.413-13.286 0-6.721 2.363-11.343t6.512-7.51 9.557-4.358q5.409-1.524 11.553-2.048 6.88-.63 11.08-1.313 4.202-.735 6.092-2.048 1.943-1.365 1.943-3.834v-.262q0-4.044-2.783-6.249t-7.51-2.206q-5.094 0-8.192 2.206t-3.938 6.091l-23.684-.84q1.05-7.352 5.409-13.128 4.411-5.829 12.078-9.138 7.72-3.36 18.537-3.361 7.72 0 14.232 1.838 6.511 1.786 11.343 5.252 4.83 3.413 7.456 8.402 2.679 4.989 2.679 11.395v54.825h-24.157v-11.238h-.63q-2.152 4.095-5.514 6.932-3.307 2.835-7.824 4.253-4.464 1.418-10.083 1.418m7.93-16.804q4.148 0 7.457-1.681 3.36-1.68 5.356-4.621 1.995-2.993 1.996-6.932v-7.667q-1.103.577-2.679 1.05a45 45 0 0 1-3.361.893q-1.837.42-3.781.735-1.943.315-3.728.578-3.623.578-6.197 1.785-2.52 1.209-3.886 3.151-1.312 1.891-1.312 4.516 0 3.992 2.835 6.092 2.889 2.1 7.3 2.101m5.409-73.73q-4.831 0-8.823-2.31-3.99-2.311-6.406-6.144-2.364-3.886-2.363-8.56 0-4.727 2.363-8.612 2.415-3.886 6.406-6.197 3.992-2.363 8.823-2.363 4.883 0 8.874 2.363 3.991 2.311 6.355 6.197 2.363 3.885 2.363 8.612 0 4.674-2.363 8.56-2.364 3.833-6.355 6.144-3.99 2.31-8.874 2.31m0-9.872q3.203 0 5.356-2.101 2.206-2.153 2.206-5.041 0-2.941-2.206-5.146-2.153-2.206-5.356-2.153-3.151.053-5.357 2.205-2.205 2.153-2.205 5.094 0 2.888 2.205 5.041t5.357 2.101m47.613 99.041v-80.661h24.944v14.703h.84q2.205-7.981 7.194-11.868 4.99-3.938 11.606-3.938 1.785 0 3.676.262 1.89.21 3.518.683v22.318q-1.838-.63-4.831-.997-2.941-.368-5.251-.368-4.569 0-8.245 2.048-3.624 1.995-5.724 5.619-2.048 3.571-2.048 8.402v43.797z" fill="#000"/></mask><g mask="url(#d)"><path d="M557.756-419.645h-1272.74v1343.18h1272.74z" fill="#000"/></g></g></g><defs><clipPath id="a"><path fill="#fff" d="M0 0h706v402H0z"/></clipPath></defs></svg>